M48
; DRILL file {KiCad 9.0.4} date 2025-10-02T13:36:07-0400
; FORMAT={-:-/ absolute / inch / decimal}
; #@! TF.CreationDate,2025-10-02T13:36:07-04:00
; #@! TF.GenerationSoftware,Kicad,Pcbnew,9.0.4
; #@! TF.FileFunction,Plated,1,2,PTH
FMAT,2
INCH
; #@! TA.AperFunction,Plated,PTH,ViaDrill
T1C0.0120
; #@! TA.AperFunction,Plated,PTH,ComponentDrill
T2C0.0394
%
G90
G05
T1
X5.2126Y-3.1095
X5.2287Y-3.9
X5.2715Y-4.201
X5.2715Y-4.26
X5.2715Y-4.319
X5.2715Y-4.378
X5.381Y-3.543
X5.381Y-3.584
X5.381Y-3.625
X5.381Y-3.666
X5.381Y-3.707
X5.422Y-3.543
X5.422Y-3.584
X5.422Y-3.625
X5.422Y-3.666
X5.422Y-3.707
X5.463Y-3.543
X5.463Y-3.584
X5.463Y-3.625
X5.463Y-3.666
X5.463Y-3.707
X5.504Y-3.543
X5.504Y-3.584
X5.504Y-3.625
X5.5132Y-4.302
X5.545Y-3.543
X5.545Y-3.584
X5.5495Y-3.31
X5.5495Y-3.37
X5.5552Y-4.109
X5.5552Y-4.1464
X5.59Y-3.697
X5.619Y-3.987
X5.6295Y-3.697
X5.64Y-3.4975
X5.6597Y-3.8905
X5.66Y-3.946
X5.66Y-3.987
X5.669Y-3.697
X5.7Y-3.4975
X5.701Y-3.946
X5.701Y-3.987
X5.7197Y-3.8925
X5.726Y-3.635
X5.742Y-3.946
X5.742Y-3.987
X5.7874Y-3.1095
X5.79Y-3.647
X5.79Y-3.6865
X5.79Y-3.7475
X5.84Y-3.946
X5.84Y-3.987
X5.879Y-3.422
X5.881Y-3.946
X5.881Y-3.987
X5.922Y-3.946
X5.922Y-3.987
X5.933Y-3.2303
X5.933Y-3.2953
X6.027Y-3.2303
X6.027Y-3.2953
X6.0375Y-3.57
X6.0375Y-3.63
X6.0375Y-3.69
X6.0818Y-3.4228
X6.082Y-3.392
X6.082Y-3.454
T2
X5.4998Y-4.559
X5.5998Y-4.559
X6.26Y-3.28
X6.26Y-3.38
X6.26Y-3.48
X6.26Y-3.58
X6.26Y-3.68
X6.26Y-3.78
X6.26Y-3.88
M30
