%TF.GenerationSoftware,KiCad,Pcbnew,9.0.4*%
%TF.CreationDate,2025-10-02T13:36:02-04:00*%
%TF.ProjectId,MPPT-dev,4d505054-2d64-4657-962e-6b696361645f,rev?*%
%TF.SameCoordinates,Original*%
%TF.FileFunction,Legend,Top*%
%TF.FilePolarity,Positive*%
%FSLAX46Y46*%
G04 Gerber Fmt 4.6, Leading zero omitted, Abs format (unit mm)*
G04 Created by KiCad (PCBNEW 9.0.4) date 2025-10-02 13:36:02*
%MOMM*%
%LPD*%
G01*
G04 APERTURE LIST*
%ADD10C,0.152400*%
%ADD11C,0.203200*%
%ADD12C,0.127000*%
%ADD13C,0.150000*%
%ADD14C,0.120000*%
%ADD15C,0.000000*%
G04 APERTURE END LIST*
D10*
X161063691Y-93816590D02*
X161063691Y-93054590D01*
X161861977Y-93744019D02*
X161825691Y-93780305D01*
X161825691Y-93780305D02*
X161716834Y-93816590D01*
X161716834Y-93816590D02*
X161644262Y-93816590D01*
X161644262Y-93816590D02*
X161535405Y-93780305D01*
X161535405Y-93780305D02*
X161462834Y-93707733D01*
X161462834Y-93707733D02*
X161426548Y-93635162D01*
X161426548Y-93635162D02*
X161390262Y-93490019D01*
X161390262Y-93490019D02*
X161390262Y-93381162D01*
X161390262Y-93381162D02*
X161426548Y-93236019D01*
X161426548Y-93236019D02*
X161462834Y-93163447D01*
X161462834Y-93163447D02*
X161535405Y-93090876D01*
X161535405Y-93090876D02*
X161644262Y-93054590D01*
X161644262Y-93054590D02*
X161716834Y-93054590D01*
X161716834Y-93054590D02*
X161825691Y-93090876D01*
X161825691Y-93090876D02*
X161861977Y-93127162D01*
X162188548Y-93816590D02*
X162188548Y-93054590D01*
X162188548Y-93417447D02*
X162623977Y-93417447D01*
X162623977Y-93816590D02*
X162623977Y-93054590D01*
X163385977Y-93090876D02*
X163313406Y-93054590D01*
X163313406Y-93054590D02*
X163204548Y-93054590D01*
X163204548Y-93054590D02*
X163095691Y-93090876D01*
X163095691Y-93090876D02*
X163023120Y-93163447D01*
X163023120Y-93163447D02*
X162986834Y-93236019D01*
X162986834Y-93236019D02*
X162950548Y-93381162D01*
X162950548Y-93381162D02*
X162950548Y-93490019D01*
X162950548Y-93490019D02*
X162986834Y-93635162D01*
X162986834Y-93635162D02*
X163023120Y-93707733D01*
X163023120Y-93707733D02*
X163095691Y-93780305D01*
X163095691Y-93780305D02*
X163204548Y-93816590D01*
X163204548Y-93816590D02*
X163277120Y-93816590D01*
X163277120Y-93816590D02*
X163385977Y-93780305D01*
X163385977Y-93780305D02*
X163422263Y-93744019D01*
X163422263Y-93744019D02*
X163422263Y-93490019D01*
X163422263Y-93490019D02*
X163277120Y-93490019D01*
X163567406Y-93889162D02*
X164147977Y-93889162D01*
X164764834Y-93816590D02*
X164510834Y-93453733D01*
X164329405Y-93816590D02*
X164329405Y-93054590D01*
X164329405Y-93054590D02*
X164619691Y-93054590D01*
X164619691Y-93054590D02*
X164692262Y-93090876D01*
X164692262Y-93090876D02*
X164728548Y-93127162D01*
X164728548Y-93127162D02*
X164764834Y-93199733D01*
X164764834Y-93199733D02*
X164764834Y-93308590D01*
X164764834Y-93308590D02*
X164728548Y-93381162D01*
X164728548Y-93381162D02*
X164692262Y-93417447D01*
X164692262Y-93417447D02*
X164619691Y-93453733D01*
X164619691Y-93453733D02*
X164329405Y-93453733D01*
X165091405Y-93816590D02*
X165091405Y-93054590D01*
X165091405Y-93054590D02*
X165272834Y-93054590D01*
X165272834Y-93054590D02*
X165381691Y-93090876D01*
X165381691Y-93090876D02*
X165454262Y-93163447D01*
X165454262Y-93163447D02*
X165490548Y-93236019D01*
X165490548Y-93236019D02*
X165526834Y-93381162D01*
X165526834Y-93381162D02*
X165526834Y-93490019D01*
X165526834Y-93490019D02*
X165490548Y-93635162D01*
X165490548Y-93635162D02*
X165454262Y-93707733D01*
X165454262Y-93707733D02*
X165381691Y-93780305D01*
X165381691Y-93780305D02*
X165272834Y-93816590D01*
X165272834Y-93816590D02*
X165091405Y-93816590D01*
X142294552Y-118112291D02*
X142258266Y-118221148D01*
X142258266Y-118221148D02*
X142221980Y-118257434D01*
X142221980Y-118257434D02*
X142149409Y-118293720D01*
X142149409Y-118293720D02*
X142040552Y-118293720D01*
X142040552Y-118293720D02*
X141967980Y-118257434D01*
X141967980Y-118257434D02*
X141931695Y-118221148D01*
X141931695Y-118221148D02*
X141895409Y-118148577D01*
X141895409Y-118148577D02*
X141895409Y-117858291D01*
X141895409Y-117858291D02*
X142657409Y-117858291D01*
X142657409Y-117858291D02*
X142657409Y-118112291D01*
X142657409Y-118112291D02*
X142621123Y-118184863D01*
X142621123Y-118184863D02*
X142584837Y-118221148D01*
X142584837Y-118221148D02*
X142512266Y-118257434D01*
X142512266Y-118257434D02*
X142439695Y-118257434D01*
X142439695Y-118257434D02*
X142367123Y-118221148D01*
X142367123Y-118221148D02*
X142330837Y-118184863D01*
X142330837Y-118184863D02*
X142294552Y-118112291D01*
X142294552Y-118112291D02*
X142294552Y-117858291D01*
X142113123Y-118584005D02*
X142113123Y-118946863D01*
X141895409Y-118511434D02*
X142657409Y-118765434D01*
X142657409Y-118765434D02*
X141895409Y-119019434D01*
X142657409Y-119164577D02*
X142657409Y-119600006D01*
X141895409Y-119382291D02*
X142657409Y-119382291D01*
X142657409Y-119745148D02*
X142657409Y-120180577D01*
X141895409Y-119962862D02*
X142657409Y-119962862D01*
X161027405Y-88700305D02*
X161136263Y-88736590D01*
X161136263Y-88736590D02*
X161317691Y-88736590D01*
X161317691Y-88736590D02*
X161390263Y-88700305D01*
X161390263Y-88700305D02*
X161426548Y-88664019D01*
X161426548Y-88664019D02*
X161462834Y-88591447D01*
X161462834Y-88591447D02*
X161462834Y-88518876D01*
X161462834Y-88518876D02*
X161426548Y-88446305D01*
X161426548Y-88446305D02*
X161390263Y-88410019D01*
X161390263Y-88410019D02*
X161317691Y-88373733D01*
X161317691Y-88373733D02*
X161172548Y-88337447D01*
X161172548Y-88337447D02*
X161099977Y-88301162D01*
X161099977Y-88301162D02*
X161063691Y-88264876D01*
X161063691Y-88264876D02*
X161027405Y-88192305D01*
X161027405Y-88192305D02*
X161027405Y-88119733D01*
X161027405Y-88119733D02*
X161063691Y-88047162D01*
X161063691Y-88047162D02*
X161099977Y-88010876D01*
X161099977Y-88010876D02*
X161172548Y-87974590D01*
X161172548Y-87974590D02*
X161353977Y-87974590D01*
X161353977Y-87974590D02*
X161462834Y-88010876D01*
X161789405Y-88736590D02*
X161789405Y-87974590D01*
X161789405Y-87974590D02*
X161970834Y-87974590D01*
X161970834Y-87974590D02*
X162079691Y-88010876D01*
X162079691Y-88010876D02*
X162152262Y-88083447D01*
X162152262Y-88083447D02*
X162188548Y-88156019D01*
X162188548Y-88156019D02*
X162224834Y-88301162D01*
X162224834Y-88301162D02*
X162224834Y-88410019D01*
X162224834Y-88410019D02*
X162188548Y-88555162D01*
X162188548Y-88555162D02*
X162152262Y-88627733D01*
X162152262Y-88627733D02*
X162079691Y-88700305D01*
X162079691Y-88700305D02*
X161970834Y-88736590D01*
X161970834Y-88736590D02*
X161789405Y-88736590D01*
X162515119Y-88518876D02*
X162877977Y-88518876D01*
X162442548Y-88736590D02*
X162696548Y-87974590D01*
X162696548Y-87974590D02*
X162950548Y-88736590D01*
X161063691Y-83366305D02*
X161644263Y-83366305D01*
X161353977Y-83656590D02*
X161353977Y-83076019D01*
X161934549Y-82894590D02*
X162406263Y-82894590D01*
X162406263Y-82894590D02*
X162152263Y-83184876D01*
X162152263Y-83184876D02*
X162261120Y-83184876D01*
X162261120Y-83184876D02*
X162333692Y-83221162D01*
X162333692Y-83221162D02*
X162369977Y-83257447D01*
X162369977Y-83257447D02*
X162406263Y-83330019D01*
X162406263Y-83330019D02*
X162406263Y-83511447D01*
X162406263Y-83511447D02*
X162369977Y-83584019D01*
X162369977Y-83584019D02*
X162333692Y-83620305D01*
X162333692Y-83620305D02*
X162261120Y-83656590D01*
X162261120Y-83656590D02*
X162043406Y-83656590D01*
X162043406Y-83656590D02*
X161970834Y-83620305D01*
X161970834Y-83620305D02*
X161934549Y-83584019D01*
X162623977Y-82894590D02*
X162877977Y-83656590D01*
X162877977Y-83656590D02*
X163131977Y-82894590D01*
X163313406Y-82894590D02*
X163785120Y-82894590D01*
X163785120Y-82894590D02*
X163531120Y-83184876D01*
X163531120Y-83184876D02*
X163639977Y-83184876D01*
X163639977Y-83184876D02*
X163712549Y-83221162D01*
X163712549Y-83221162D02*
X163748834Y-83257447D01*
X163748834Y-83257447D02*
X163785120Y-83330019D01*
X163785120Y-83330019D02*
X163785120Y-83511447D01*
X163785120Y-83511447D02*
X163748834Y-83584019D01*
X163748834Y-83584019D02*
X163712549Y-83620305D01*
X163712549Y-83620305D02*
X163639977Y-83656590D01*
X163639977Y-83656590D02*
X163422263Y-83656590D01*
X163422263Y-83656590D02*
X163349691Y-83620305D01*
X163349691Y-83620305D02*
X163313406Y-83584019D01*
X160954834Y-90514590D02*
X161208834Y-91276590D01*
X161208834Y-91276590D02*
X161462834Y-90514590D01*
X161716834Y-91276590D02*
X161716834Y-90514590D01*
X162079691Y-91276590D02*
X162079691Y-90514590D01*
X162079691Y-90514590D02*
X162515120Y-91276590D01*
X162515120Y-91276590D02*
X162515120Y-90514590D01*
X162696549Y-91349162D02*
X163277120Y-91349162D01*
X163893977Y-91276590D02*
X163639977Y-90913733D01*
X163458548Y-91276590D02*
X163458548Y-90514590D01*
X163458548Y-90514590D02*
X163748834Y-90514590D01*
X163748834Y-90514590D02*
X163821405Y-90550876D01*
X163821405Y-90550876D02*
X163857691Y-90587162D01*
X163857691Y-90587162D02*
X163893977Y-90659733D01*
X163893977Y-90659733D02*
X163893977Y-90768590D01*
X163893977Y-90768590D02*
X163857691Y-90841162D01*
X163857691Y-90841162D02*
X163821405Y-90877447D01*
X163821405Y-90877447D02*
X163748834Y-90913733D01*
X163748834Y-90913733D02*
X163458548Y-90913733D01*
X164220548Y-91276590D02*
X164220548Y-90514590D01*
X164220548Y-90514590D02*
X164401977Y-90514590D01*
X164401977Y-90514590D02*
X164510834Y-90550876D01*
X164510834Y-90550876D02*
X164583405Y-90623447D01*
X164583405Y-90623447D02*
X164619691Y-90696019D01*
X164619691Y-90696019D02*
X164655977Y-90841162D01*
X164655977Y-90841162D02*
X164655977Y-90950019D01*
X164655977Y-90950019D02*
X164619691Y-91095162D01*
X164619691Y-91095162D02*
X164583405Y-91167733D01*
X164583405Y-91167733D02*
X164510834Y-91240305D01*
X164510834Y-91240305D02*
X164401977Y-91276590D01*
X164401977Y-91276590D02*
X164220548Y-91276590D01*
X140081123Y-118257434D02*
X140117409Y-118184863D01*
X140117409Y-118184863D02*
X140117409Y-118076005D01*
X140117409Y-118076005D02*
X140081123Y-117967148D01*
X140081123Y-117967148D02*
X140008552Y-117894577D01*
X140008552Y-117894577D02*
X139935980Y-117858291D01*
X139935980Y-117858291D02*
X139790837Y-117822005D01*
X139790837Y-117822005D02*
X139681980Y-117822005D01*
X139681980Y-117822005D02*
X139536837Y-117858291D01*
X139536837Y-117858291D02*
X139464266Y-117894577D01*
X139464266Y-117894577D02*
X139391695Y-117967148D01*
X139391695Y-117967148D02*
X139355409Y-118076005D01*
X139355409Y-118076005D02*
X139355409Y-118148577D01*
X139355409Y-118148577D02*
X139391695Y-118257434D01*
X139391695Y-118257434D02*
X139427980Y-118293720D01*
X139427980Y-118293720D02*
X139681980Y-118293720D01*
X139681980Y-118293720D02*
X139681980Y-118148577D01*
X139355409Y-118620291D02*
X140117409Y-118620291D01*
X140117409Y-118620291D02*
X139355409Y-119055720D01*
X139355409Y-119055720D02*
X140117409Y-119055720D01*
X139355409Y-119418577D02*
X140117409Y-119418577D01*
X140117409Y-119418577D02*
X140117409Y-119600006D01*
X140117409Y-119600006D02*
X140081123Y-119708863D01*
X140081123Y-119708863D02*
X140008552Y-119781434D01*
X140008552Y-119781434D02*
X139935980Y-119817720D01*
X139935980Y-119817720D02*
X139790837Y-119854006D01*
X139790837Y-119854006D02*
X139681980Y-119854006D01*
X139681980Y-119854006D02*
X139536837Y-119817720D01*
X139536837Y-119817720D02*
X139464266Y-119781434D01*
X139464266Y-119781434D02*
X139391695Y-119708863D01*
X139391695Y-119708863D02*
X139355409Y-119600006D01*
X139355409Y-119600006D02*
X139355409Y-119418577D01*
D11*
X160830087Y-119892201D02*
X160830087Y-120376011D01*
X160830087Y-120376011D02*
X159814087Y-120376011D01*
X159814087Y-119698678D02*
X159814087Y-119118106D01*
X160830087Y-119408392D02*
X159814087Y-119408392D01*
X160249516Y-118634297D02*
X160201135Y-118731059D01*
X160201135Y-118731059D02*
X160152754Y-118779440D01*
X160152754Y-118779440D02*
X160055992Y-118827821D01*
X160055992Y-118827821D02*
X160007611Y-118827821D01*
X160007611Y-118827821D02*
X159910849Y-118779440D01*
X159910849Y-118779440D02*
X159862468Y-118731059D01*
X159862468Y-118731059D02*
X159814087Y-118634297D01*
X159814087Y-118634297D02*
X159814087Y-118440773D01*
X159814087Y-118440773D02*
X159862468Y-118344011D01*
X159862468Y-118344011D02*
X159910849Y-118295630D01*
X159910849Y-118295630D02*
X160007611Y-118247249D01*
X160007611Y-118247249D02*
X160055992Y-118247249D01*
X160055992Y-118247249D02*
X160152754Y-118295630D01*
X160152754Y-118295630D02*
X160201135Y-118344011D01*
X160201135Y-118344011D02*
X160249516Y-118440773D01*
X160249516Y-118440773D02*
X160249516Y-118634297D01*
X160249516Y-118634297D02*
X160297897Y-118731059D01*
X160297897Y-118731059D02*
X160346278Y-118779440D01*
X160346278Y-118779440D02*
X160443040Y-118827821D01*
X160443040Y-118827821D02*
X160636564Y-118827821D01*
X160636564Y-118827821D02*
X160733326Y-118779440D01*
X160733326Y-118779440D02*
X160781707Y-118731059D01*
X160781707Y-118731059D02*
X160830087Y-118634297D01*
X160830087Y-118634297D02*
X160830087Y-118440773D01*
X160830087Y-118440773D02*
X160781707Y-118344011D01*
X160781707Y-118344011D02*
X160733326Y-118295630D01*
X160733326Y-118295630D02*
X160636564Y-118247249D01*
X160636564Y-118247249D02*
X160443040Y-118247249D01*
X160443040Y-118247249D02*
X160346278Y-118295630D01*
X160346278Y-118295630D02*
X160297897Y-118344011D01*
X160297897Y-118344011D02*
X160249516Y-118440773D01*
X159814087Y-117376392D02*
X159814087Y-117569916D01*
X159814087Y-117569916D02*
X159862468Y-117666678D01*
X159862468Y-117666678D02*
X159910849Y-117715059D01*
X159910849Y-117715059D02*
X160055992Y-117811821D01*
X160055992Y-117811821D02*
X160249516Y-117860202D01*
X160249516Y-117860202D02*
X160636564Y-117860202D01*
X160636564Y-117860202D02*
X160733326Y-117811821D01*
X160733326Y-117811821D02*
X160781707Y-117763440D01*
X160781707Y-117763440D02*
X160830087Y-117666678D01*
X160830087Y-117666678D02*
X160830087Y-117473154D01*
X160830087Y-117473154D02*
X160781707Y-117376392D01*
X160781707Y-117376392D02*
X160733326Y-117328011D01*
X160733326Y-117328011D02*
X160636564Y-117279630D01*
X160636564Y-117279630D02*
X160394659Y-117279630D01*
X160394659Y-117279630D02*
X160297897Y-117328011D01*
X160297897Y-117328011D02*
X160249516Y-117376392D01*
X160249516Y-117376392D02*
X160201135Y-117473154D01*
X160201135Y-117473154D02*
X160201135Y-117666678D01*
X160201135Y-117666678D02*
X160249516Y-117763440D01*
X160249516Y-117763440D02*
X160297897Y-117811821D01*
X160297897Y-117811821D02*
X160394659Y-117860202D01*
X160830087Y-116312011D02*
X160830087Y-116892583D01*
X160830087Y-116602297D02*
X159814087Y-116602297D01*
X159814087Y-116602297D02*
X159959230Y-116699059D01*
X159959230Y-116699059D02*
X160055992Y-116795821D01*
X160055992Y-116795821D02*
X160104373Y-116892583D01*
X160830087Y-115344392D02*
X160830087Y-115924964D01*
X160830087Y-115634678D02*
X159814087Y-115634678D01*
X159814087Y-115634678D02*
X159959230Y-115731440D01*
X159959230Y-115731440D02*
X160055992Y-115828202D01*
X160055992Y-115828202D02*
X160104373Y-115924964D01*
X160830087Y-114134869D02*
X159814087Y-114134869D01*
X159814087Y-114134869D02*
X160539802Y-113796202D01*
X160539802Y-113796202D02*
X159814087Y-113457535D01*
X159814087Y-113457535D02*
X160830087Y-113457535D01*
X160830087Y-112973726D02*
X159814087Y-112973726D01*
X159814087Y-112973726D02*
X159814087Y-112586678D01*
X159814087Y-112586678D02*
X159862468Y-112489916D01*
X159862468Y-112489916D02*
X159910849Y-112441535D01*
X159910849Y-112441535D02*
X160007611Y-112393154D01*
X160007611Y-112393154D02*
X160152754Y-112393154D01*
X160152754Y-112393154D02*
X160249516Y-112441535D01*
X160249516Y-112441535D02*
X160297897Y-112489916D01*
X160297897Y-112489916D02*
X160346278Y-112586678D01*
X160346278Y-112586678D02*
X160346278Y-112973726D01*
X160830087Y-111957726D02*
X159814087Y-111957726D01*
X159814087Y-111957726D02*
X159814087Y-111570678D01*
X159814087Y-111570678D02*
X159862468Y-111473916D01*
X159862468Y-111473916D02*
X159910849Y-111425535D01*
X159910849Y-111425535D02*
X160007611Y-111377154D01*
X160007611Y-111377154D02*
X160152754Y-111377154D01*
X160152754Y-111377154D02*
X160249516Y-111425535D01*
X160249516Y-111425535D02*
X160297897Y-111473916D01*
X160297897Y-111473916D02*
X160346278Y-111570678D01*
X160346278Y-111570678D02*
X160346278Y-111957726D01*
X159814087Y-111086869D02*
X159814087Y-110506297D01*
X160830087Y-110796583D02*
X159814087Y-110796583D01*
X160733326Y-108812964D02*
X160781707Y-108861345D01*
X160781707Y-108861345D02*
X160830087Y-109006488D01*
X160830087Y-109006488D02*
X160830087Y-109103250D01*
X160830087Y-109103250D02*
X160781707Y-109248393D01*
X160781707Y-109248393D02*
X160684945Y-109345155D01*
X160684945Y-109345155D02*
X160588183Y-109393536D01*
X160588183Y-109393536D02*
X160394659Y-109441917D01*
X160394659Y-109441917D02*
X160249516Y-109441917D01*
X160249516Y-109441917D02*
X160055992Y-109393536D01*
X160055992Y-109393536D02*
X159959230Y-109345155D01*
X159959230Y-109345155D02*
X159862468Y-109248393D01*
X159862468Y-109248393D02*
X159814087Y-109103250D01*
X159814087Y-109103250D02*
X159814087Y-109006488D01*
X159814087Y-109006488D02*
X159862468Y-108861345D01*
X159862468Y-108861345D02*
X159910849Y-108812964D01*
X160830087Y-108232393D02*
X160781707Y-108329155D01*
X160781707Y-108329155D02*
X160733326Y-108377536D01*
X160733326Y-108377536D02*
X160636564Y-108425917D01*
X160636564Y-108425917D02*
X160346278Y-108425917D01*
X160346278Y-108425917D02*
X160249516Y-108377536D01*
X160249516Y-108377536D02*
X160201135Y-108329155D01*
X160201135Y-108329155D02*
X160152754Y-108232393D01*
X160152754Y-108232393D02*
X160152754Y-108087250D01*
X160152754Y-108087250D02*
X160201135Y-107990488D01*
X160201135Y-107990488D02*
X160249516Y-107942107D01*
X160249516Y-107942107D02*
X160346278Y-107893726D01*
X160346278Y-107893726D02*
X160636564Y-107893726D01*
X160636564Y-107893726D02*
X160733326Y-107942107D01*
X160733326Y-107942107D02*
X160781707Y-107990488D01*
X160781707Y-107990488D02*
X160830087Y-108087250D01*
X160830087Y-108087250D02*
X160830087Y-108232393D01*
X160152754Y-107458298D02*
X160830087Y-107458298D01*
X160249516Y-107458298D02*
X160201135Y-107409917D01*
X160201135Y-107409917D02*
X160152754Y-107313155D01*
X160152754Y-107313155D02*
X160152754Y-107168012D01*
X160152754Y-107168012D02*
X160201135Y-107071250D01*
X160201135Y-107071250D02*
X160297897Y-107022869D01*
X160297897Y-107022869D02*
X160830087Y-107022869D01*
X160152754Y-106684203D02*
X160152754Y-106297155D01*
X159814087Y-106539060D02*
X160684945Y-106539060D01*
X160684945Y-106539060D02*
X160781707Y-106490679D01*
X160781707Y-106490679D02*
X160830087Y-106393917D01*
X160830087Y-106393917D02*
X160830087Y-106297155D01*
X160830087Y-105958489D02*
X160152754Y-105958489D01*
X160346278Y-105958489D02*
X160249516Y-105910108D01*
X160249516Y-105910108D02*
X160201135Y-105861727D01*
X160201135Y-105861727D02*
X160152754Y-105764965D01*
X160152754Y-105764965D02*
X160152754Y-105668203D01*
X160830087Y-105184394D02*
X160781707Y-105281156D01*
X160781707Y-105281156D02*
X160733326Y-105329537D01*
X160733326Y-105329537D02*
X160636564Y-105377918D01*
X160636564Y-105377918D02*
X160346278Y-105377918D01*
X160346278Y-105377918D02*
X160249516Y-105329537D01*
X160249516Y-105329537D02*
X160201135Y-105281156D01*
X160201135Y-105281156D02*
X160152754Y-105184394D01*
X160152754Y-105184394D02*
X160152754Y-105039251D01*
X160152754Y-105039251D02*
X160201135Y-104942489D01*
X160201135Y-104942489D02*
X160249516Y-104894108D01*
X160249516Y-104894108D02*
X160346278Y-104845727D01*
X160346278Y-104845727D02*
X160636564Y-104845727D01*
X160636564Y-104845727D02*
X160733326Y-104894108D01*
X160733326Y-104894108D02*
X160781707Y-104942489D01*
X160781707Y-104942489D02*
X160830087Y-105039251D01*
X160830087Y-105039251D02*
X160830087Y-105184394D01*
X160830087Y-104265156D02*
X160781707Y-104361918D01*
X160781707Y-104361918D02*
X160684945Y-104410299D01*
X160684945Y-104410299D02*
X159814087Y-104410299D01*
X160830087Y-103732966D02*
X160781707Y-103829728D01*
X160781707Y-103829728D02*
X160684945Y-103878109D01*
X160684945Y-103878109D02*
X159814087Y-103878109D01*
X160781707Y-102958871D02*
X160830087Y-103055633D01*
X160830087Y-103055633D02*
X160830087Y-103249157D01*
X160830087Y-103249157D02*
X160781707Y-103345919D01*
X160781707Y-103345919D02*
X160684945Y-103394300D01*
X160684945Y-103394300D02*
X160297897Y-103394300D01*
X160297897Y-103394300D02*
X160201135Y-103345919D01*
X160201135Y-103345919D02*
X160152754Y-103249157D01*
X160152754Y-103249157D02*
X160152754Y-103055633D01*
X160152754Y-103055633D02*
X160201135Y-102958871D01*
X160201135Y-102958871D02*
X160297897Y-102910490D01*
X160297897Y-102910490D02*
X160394659Y-102910490D01*
X160394659Y-102910490D02*
X160491421Y-103394300D01*
X160830087Y-102475062D02*
X160152754Y-102475062D01*
X160346278Y-102475062D02*
X160249516Y-102426681D01*
X160249516Y-102426681D02*
X160201135Y-102378300D01*
X160201135Y-102378300D02*
X160152754Y-102281538D01*
X160152754Y-102281538D02*
X160152754Y-102184776D01*
X162175505Y-120424392D02*
X162175505Y-119940582D01*
X162465790Y-120521154D02*
X161449790Y-120182487D01*
X161449790Y-120182487D02*
X162465790Y-119843820D01*
X162465790Y-118924582D02*
X161981981Y-119263249D01*
X162465790Y-119505154D02*
X161449790Y-119505154D01*
X161449790Y-119505154D02*
X161449790Y-119118106D01*
X161449790Y-119118106D02*
X161498171Y-119021344D01*
X161498171Y-119021344D02*
X161546552Y-118972963D01*
X161546552Y-118972963D02*
X161643314Y-118924582D01*
X161643314Y-118924582D02*
X161788457Y-118924582D01*
X161788457Y-118924582D02*
X161885219Y-118972963D01*
X161885219Y-118972963D02*
X161933600Y-119021344D01*
X161933600Y-119021344D02*
X161981981Y-119118106D01*
X161981981Y-119118106D02*
X161981981Y-119505154D01*
X161498171Y-117956963D02*
X161449790Y-118053725D01*
X161449790Y-118053725D02*
X161449790Y-118198868D01*
X161449790Y-118198868D02*
X161498171Y-118344011D01*
X161498171Y-118344011D02*
X161594933Y-118440773D01*
X161594933Y-118440773D02*
X161691695Y-118489154D01*
X161691695Y-118489154D02*
X161885219Y-118537535D01*
X161885219Y-118537535D02*
X162030362Y-118537535D01*
X162030362Y-118537535D02*
X162223886Y-118489154D01*
X162223886Y-118489154D02*
X162320648Y-118440773D01*
X162320648Y-118440773D02*
X162417410Y-118344011D01*
X162417410Y-118344011D02*
X162465790Y-118198868D01*
X162465790Y-118198868D02*
X162465790Y-118102106D01*
X162465790Y-118102106D02*
X162417410Y-117956963D01*
X162417410Y-117956963D02*
X162369029Y-117908582D01*
X162369029Y-117908582D02*
X162030362Y-117908582D01*
X162030362Y-117908582D02*
X162030362Y-118102106D01*
X161449790Y-117473154D02*
X162272267Y-117473154D01*
X162272267Y-117473154D02*
X162369029Y-117424773D01*
X162369029Y-117424773D02*
X162417410Y-117376392D01*
X162417410Y-117376392D02*
X162465790Y-117279630D01*
X162465790Y-117279630D02*
X162465790Y-117086106D01*
X162465790Y-117086106D02*
X162417410Y-116989344D01*
X162417410Y-116989344D02*
X162369029Y-116940963D01*
X162369029Y-116940963D02*
X162272267Y-116892582D01*
X162272267Y-116892582D02*
X161449790Y-116892582D01*
X162417410Y-116457154D02*
X162465790Y-116312011D01*
X162465790Y-116312011D02*
X162465790Y-116070106D01*
X162465790Y-116070106D02*
X162417410Y-115973344D01*
X162417410Y-115973344D02*
X162369029Y-115924963D01*
X162369029Y-115924963D02*
X162272267Y-115876582D01*
X162272267Y-115876582D02*
X162175505Y-115876582D01*
X162175505Y-115876582D02*
X162078743Y-115924963D01*
X162078743Y-115924963D02*
X162030362Y-115973344D01*
X162030362Y-115973344D02*
X161981981Y-116070106D01*
X161981981Y-116070106D02*
X161933600Y-116263630D01*
X161933600Y-116263630D02*
X161885219Y-116360392D01*
X161885219Y-116360392D02*
X161836838Y-116408773D01*
X161836838Y-116408773D02*
X161740076Y-116457154D01*
X161740076Y-116457154D02*
X161643314Y-116457154D01*
X161643314Y-116457154D02*
X161546552Y-116408773D01*
X161546552Y-116408773D02*
X161498171Y-116360392D01*
X161498171Y-116360392D02*
X161449790Y-116263630D01*
X161449790Y-116263630D02*
X161449790Y-116021725D01*
X161449790Y-116021725D02*
X161498171Y-115876582D01*
X162369029Y-114086487D02*
X162417410Y-114134868D01*
X162417410Y-114134868D02*
X162465790Y-114280011D01*
X162465790Y-114280011D02*
X162465790Y-114376773D01*
X162465790Y-114376773D02*
X162417410Y-114521916D01*
X162417410Y-114521916D02*
X162320648Y-114618678D01*
X162320648Y-114618678D02*
X162223886Y-114667059D01*
X162223886Y-114667059D02*
X162030362Y-114715440D01*
X162030362Y-114715440D02*
X161885219Y-114715440D01*
X161885219Y-114715440D02*
X161691695Y-114667059D01*
X161691695Y-114667059D02*
X161594933Y-114618678D01*
X161594933Y-114618678D02*
X161498171Y-114521916D01*
X161498171Y-114521916D02*
X161449790Y-114376773D01*
X161449790Y-114376773D02*
X161449790Y-114280011D01*
X161449790Y-114280011D02*
X161498171Y-114134868D01*
X161498171Y-114134868D02*
X161546552Y-114086487D01*
X161788457Y-113215630D02*
X162465790Y-113215630D01*
X161788457Y-113651059D02*
X162320648Y-113651059D01*
X162320648Y-113651059D02*
X162417410Y-113602678D01*
X162417410Y-113602678D02*
X162465790Y-113505916D01*
X162465790Y-113505916D02*
X162465790Y-113360773D01*
X162465790Y-113360773D02*
X162417410Y-113264011D01*
X162417410Y-113264011D02*
X162369029Y-113215630D01*
X162465790Y-112731821D02*
X161449790Y-112731821D01*
X161836838Y-112731821D02*
X161788457Y-112635059D01*
X161788457Y-112635059D02*
X161788457Y-112441535D01*
X161788457Y-112441535D02*
X161836838Y-112344773D01*
X161836838Y-112344773D02*
X161885219Y-112296392D01*
X161885219Y-112296392D02*
X161981981Y-112248011D01*
X161981981Y-112248011D02*
X162272267Y-112248011D01*
X162272267Y-112248011D02*
X162369029Y-112296392D01*
X162369029Y-112296392D02*
X162417410Y-112344773D01*
X162417410Y-112344773D02*
X162465790Y-112441535D01*
X162465790Y-112441535D02*
X162465790Y-112635059D01*
X162465790Y-112635059D02*
X162417410Y-112731821D01*
X162417410Y-111425535D02*
X162465790Y-111522297D01*
X162465790Y-111522297D02*
X162465790Y-111715821D01*
X162465790Y-111715821D02*
X162417410Y-111812583D01*
X162417410Y-111812583D02*
X162320648Y-111860964D01*
X162320648Y-111860964D02*
X161933600Y-111860964D01*
X161933600Y-111860964D02*
X161836838Y-111812583D01*
X161836838Y-111812583D02*
X161788457Y-111715821D01*
X161788457Y-111715821D02*
X161788457Y-111522297D01*
X161788457Y-111522297D02*
X161836838Y-111425535D01*
X161836838Y-111425535D02*
X161933600Y-111377154D01*
X161933600Y-111377154D02*
X162030362Y-111377154D01*
X162030362Y-111377154D02*
X162127124Y-111860964D01*
X162417410Y-110990107D02*
X162465790Y-110893345D01*
X162465790Y-110893345D02*
X162465790Y-110699821D01*
X162465790Y-110699821D02*
X162417410Y-110603059D01*
X162417410Y-110603059D02*
X162320648Y-110554678D01*
X162320648Y-110554678D02*
X162272267Y-110554678D01*
X162272267Y-110554678D02*
X162175505Y-110603059D01*
X162175505Y-110603059D02*
X162127124Y-110699821D01*
X162127124Y-110699821D02*
X162127124Y-110844964D01*
X162127124Y-110844964D02*
X162078743Y-110941726D01*
X162078743Y-110941726D02*
X161981981Y-110990107D01*
X161981981Y-110990107D02*
X161933600Y-110990107D01*
X161933600Y-110990107D02*
X161836838Y-110941726D01*
X161836838Y-110941726D02*
X161788457Y-110844964D01*
X161788457Y-110844964D02*
X161788457Y-110699821D01*
X161788457Y-110699821D02*
X161836838Y-110603059D01*
X162465790Y-109683821D02*
X161933600Y-109683821D01*
X161933600Y-109683821D02*
X161836838Y-109732202D01*
X161836838Y-109732202D02*
X161788457Y-109828964D01*
X161788457Y-109828964D02*
X161788457Y-110022488D01*
X161788457Y-110022488D02*
X161836838Y-110119250D01*
X162417410Y-109683821D02*
X162465790Y-109780583D01*
X162465790Y-109780583D02*
X162465790Y-110022488D01*
X162465790Y-110022488D02*
X162417410Y-110119250D01*
X162417410Y-110119250D02*
X162320648Y-110167631D01*
X162320648Y-110167631D02*
X162223886Y-110167631D01*
X162223886Y-110167631D02*
X162127124Y-110119250D01*
X162127124Y-110119250D02*
X162078743Y-110022488D01*
X162078743Y-110022488D02*
X162078743Y-109780583D01*
X162078743Y-109780583D02*
X162030362Y-109683821D01*
X161788457Y-109345155D02*
X161788457Y-108958107D01*
X161449790Y-109200012D02*
X162320648Y-109200012D01*
X162320648Y-109200012D02*
X162417410Y-109151631D01*
X162417410Y-109151631D02*
X162465790Y-109054869D01*
X162465790Y-109054869D02*
X162465790Y-108958107D01*
X163424160Y-120472773D02*
X164101493Y-120230868D01*
X164101493Y-120230868D02*
X163424160Y-119988963D01*
X164101493Y-119069725D02*
X164101493Y-119650297D01*
X164101493Y-119360011D02*
X163085493Y-119360011D01*
X163085493Y-119360011D02*
X163230636Y-119456773D01*
X163230636Y-119456773D02*
X163327398Y-119553535D01*
X163327398Y-119553535D02*
X163375779Y-119650297D01*
X164004732Y-118634297D02*
X164053113Y-118585916D01*
X164053113Y-118585916D02*
X164101493Y-118634297D01*
X164101493Y-118634297D02*
X164053113Y-118682678D01*
X164053113Y-118682678D02*
X164004732Y-118634297D01*
X164004732Y-118634297D02*
X164101493Y-118634297D01*
X163085493Y-117956963D02*
X163085493Y-117860201D01*
X163085493Y-117860201D02*
X163133874Y-117763439D01*
X163133874Y-117763439D02*
X163182255Y-117715058D01*
X163182255Y-117715058D02*
X163279017Y-117666677D01*
X163279017Y-117666677D02*
X163472541Y-117618296D01*
X163472541Y-117618296D02*
X163714446Y-117618296D01*
X163714446Y-117618296D02*
X163907970Y-117666677D01*
X163907970Y-117666677D02*
X164004732Y-117715058D01*
X164004732Y-117715058D02*
X164053113Y-117763439D01*
X164053113Y-117763439D02*
X164101493Y-117860201D01*
X164101493Y-117860201D02*
X164101493Y-117956963D01*
X164101493Y-117956963D02*
X164053113Y-118053725D01*
X164053113Y-118053725D02*
X164004732Y-118102106D01*
X164004732Y-118102106D02*
X163907970Y-118150487D01*
X163907970Y-118150487D02*
X163714446Y-118198868D01*
X163714446Y-118198868D02*
X163472541Y-118198868D01*
X163472541Y-118198868D02*
X163279017Y-118150487D01*
X163279017Y-118150487D02*
X163182255Y-118102106D01*
X163182255Y-118102106D02*
X163133874Y-118053725D01*
X163133874Y-118053725D02*
X163085493Y-117956963D01*
D10*
X161462834Y-98170876D02*
X161390263Y-98134590D01*
X161390263Y-98134590D02*
X161281405Y-98134590D01*
X161281405Y-98134590D02*
X161172548Y-98170876D01*
X161172548Y-98170876D02*
X161099977Y-98243447D01*
X161099977Y-98243447D02*
X161063691Y-98316019D01*
X161063691Y-98316019D02*
X161027405Y-98461162D01*
X161027405Y-98461162D02*
X161027405Y-98570019D01*
X161027405Y-98570019D02*
X161063691Y-98715162D01*
X161063691Y-98715162D02*
X161099977Y-98787733D01*
X161099977Y-98787733D02*
X161172548Y-98860305D01*
X161172548Y-98860305D02*
X161281405Y-98896590D01*
X161281405Y-98896590D02*
X161353977Y-98896590D01*
X161353977Y-98896590D02*
X161462834Y-98860305D01*
X161462834Y-98860305D02*
X161499120Y-98824019D01*
X161499120Y-98824019D02*
X161499120Y-98570019D01*
X161499120Y-98570019D02*
X161353977Y-98570019D01*
X161825691Y-98896590D02*
X161825691Y-98134590D01*
X161825691Y-98134590D02*
X162261120Y-98896590D01*
X162261120Y-98896590D02*
X162261120Y-98134590D01*
X162623977Y-98896590D02*
X162623977Y-98134590D01*
X162623977Y-98134590D02*
X162805406Y-98134590D01*
X162805406Y-98134590D02*
X162914263Y-98170876D01*
X162914263Y-98170876D02*
X162986834Y-98243447D01*
X162986834Y-98243447D02*
X163023120Y-98316019D01*
X163023120Y-98316019D02*
X163059406Y-98461162D01*
X163059406Y-98461162D02*
X163059406Y-98570019D01*
X163059406Y-98570019D02*
X163023120Y-98715162D01*
X163023120Y-98715162D02*
X162986834Y-98787733D01*
X162986834Y-98787733D02*
X162914263Y-98860305D01*
X162914263Y-98860305D02*
X162805406Y-98896590D01*
X162805406Y-98896590D02*
X162623977Y-98896590D01*
X161027405Y-86160305D02*
X161136263Y-86196590D01*
X161136263Y-86196590D02*
X161317691Y-86196590D01*
X161317691Y-86196590D02*
X161390263Y-86160305D01*
X161390263Y-86160305D02*
X161426548Y-86124019D01*
X161426548Y-86124019D02*
X161462834Y-86051447D01*
X161462834Y-86051447D02*
X161462834Y-85978876D01*
X161462834Y-85978876D02*
X161426548Y-85906305D01*
X161426548Y-85906305D02*
X161390263Y-85870019D01*
X161390263Y-85870019D02*
X161317691Y-85833733D01*
X161317691Y-85833733D02*
X161172548Y-85797447D01*
X161172548Y-85797447D02*
X161099977Y-85761162D01*
X161099977Y-85761162D02*
X161063691Y-85724876D01*
X161063691Y-85724876D02*
X161027405Y-85652305D01*
X161027405Y-85652305D02*
X161027405Y-85579733D01*
X161027405Y-85579733D02*
X161063691Y-85507162D01*
X161063691Y-85507162D02*
X161099977Y-85470876D01*
X161099977Y-85470876D02*
X161172548Y-85434590D01*
X161172548Y-85434590D02*
X161353977Y-85434590D01*
X161353977Y-85434590D02*
X161462834Y-85470876D01*
X162224834Y-86124019D02*
X162188548Y-86160305D01*
X162188548Y-86160305D02*
X162079691Y-86196590D01*
X162079691Y-86196590D02*
X162007119Y-86196590D01*
X162007119Y-86196590D02*
X161898262Y-86160305D01*
X161898262Y-86160305D02*
X161825691Y-86087733D01*
X161825691Y-86087733D02*
X161789405Y-86015162D01*
X161789405Y-86015162D02*
X161753119Y-85870019D01*
X161753119Y-85870019D02*
X161753119Y-85761162D01*
X161753119Y-85761162D02*
X161789405Y-85616019D01*
X161789405Y-85616019D02*
X161825691Y-85543447D01*
X161825691Y-85543447D02*
X161898262Y-85470876D01*
X161898262Y-85470876D02*
X162007119Y-85434590D01*
X162007119Y-85434590D02*
X162079691Y-85434590D01*
X162079691Y-85434590D02*
X162188548Y-85470876D01*
X162188548Y-85470876D02*
X162224834Y-85507162D01*
X162914262Y-86196590D02*
X162551405Y-86196590D01*
X162551405Y-86196590D02*
X162551405Y-85434590D01*
X161063691Y-96356590D02*
X161063691Y-95594590D01*
X161063691Y-95594590D02*
X161317691Y-96138876D01*
X161317691Y-96138876D02*
X161571691Y-95594590D01*
X161571691Y-95594590D02*
X161571691Y-96356590D01*
X162079691Y-95594590D02*
X162224834Y-95594590D01*
X162224834Y-95594590D02*
X162297405Y-95630876D01*
X162297405Y-95630876D02*
X162369977Y-95703447D01*
X162369977Y-95703447D02*
X162406262Y-95848590D01*
X162406262Y-95848590D02*
X162406262Y-96102590D01*
X162406262Y-96102590D02*
X162369977Y-96247733D01*
X162369977Y-96247733D02*
X162297405Y-96320305D01*
X162297405Y-96320305D02*
X162224834Y-96356590D01*
X162224834Y-96356590D02*
X162079691Y-96356590D01*
X162079691Y-96356590D02*
X162007120Y-96320305D01*
X162007120Y-96320305D02*
X161934548Y-96247733D01*
X161934548Y-96247733D02*
X161898262Y-96102590D01*
X161898262Y-96102590D02*
X161898262Y-95848590D01*
X161898262Y-95848590D02*
X161934548Y-95703447D01*
X161934548Y-95703447D02*
X162007120Y-95630876D01*
X162007120Y-95630876D02*
X162079691Y-95594590D01*
X162732834Y-96356590D02*
X162732834Y-95594590D01*
X162732834Y-95594590D02*
X162914263Y-95594590D01*
X162914263Y-95594590D02*
X163023120Y-95630876D01*
X163023120Y-95630876D02*
X163095691Y-95703447D01*
X163095691Y-95703447D02*
X163131977Y-95776019D01*
X163131977Y-95776019D02*
X163168263Y-95921162D01*
X163168263Y-95921162D02*
X163168263Y-96030019D01*
X163168263Y-96030019D02*
X163131977Y-96175162D01*
X163131977Y-96175162D02*
X163095691Y-96247733D01*
X163095691Y-96247733D02*
X163023120Y-96320305D01*
X163023120Y-96320305D02*
X162914263Y-96356590D01*
X162914263Y-96356590D02*
X162732834Y-96356590D01*
X163494834Y-95957447D02*
X163748834Y-95957447D01*
X163857691Y-96356590D02*
X163494834Y-96356590D01*
X163494834Y-96356590D02*
X163494834Y-95594590D01*
X163494834Y-95594590D02*
X163857691Y-95594590D01*
D12*
X141756190Y-101861759D02*
X141756190Y-102375806D01*
X141756190Y-102375806D02*
X141786428Y-102436282D01*
X141786428Y-102436282D02*
X141816666Y-102466521D01*
X141816666Y-102466521D02*
X141877142Y-102496759D01*
X141877142Y-102496759D02*
X141998095Y-102496759D01*
X141998095Y-102496759D02*
X142058571Y-102466521D01*
X142058571Y-102466521D02*
X142088809Y-102436282D01*
X142088809Y-102436282D02*
X142119047Y-102375806D01*
X142119047Y-102375806D02*
X142119047Y-101861759D01*
X142754047Y-102496759D02*
X142391190Y-102496759D01*
X142572618Y-102496759D02*
X142572618Y-101861759D01*
X142572618Y-101861759D02*
X142512142Y-101952473D01*
X142512142Y-101952473D02*
X142451666Y-102012949D01*
X142451666Y-102012949D02*
X142391190Y-102043187D01*
X132210533Y-111427882D02*
X132180295Y-111458121D01*
X132180295Y-111458121D02*
X132089581Y-111488359D01*
X132089581Y-111488359D02*
X132029105Y-111488359D01*
X132029105Y-111488359D02*
X131938390Y-111458121D01*
X131938390Y-111458121D02*
X131877914Y-111397644D01*
X131877914Y-111397644D02*
X131847676Y-111337168D01*
X131847676Y-111337168D02*
X131817438Y-111216216D01*
X131817438Y-111216216D02*
X131817438Y-111125501D01*
X131817438Y-111125501D02*
X131847676Y-111004549D01*
X131847676Y-111004549D02*
X131877914Y-110944073D01*
X131877914Y-110944073D02*
X131938390Y-110883597D01*
X131938390Y-110883597D02*
X132029105Y-110853359D01*
X132029105Y-110853359D02*
X132089581Y-110853359D01*
X132089581Y-110853359D02*
X132180295Y-110883597D01*
X132180295Y-110883597D02*
X132210533Y-110913835D01*
X132512914Y-111488359D02*
X132633866Y-111488359D01*
X132633866Y-111488359D02*
X132694343Y-111458121D01*
X132694343Y-111458121D02*
X132724581Y-111427882D01*
X132724581Y-111427882D02*
X132785057Y-111337168D01*
X132785057Y-111337168D02*
X132815295Y-111216216D01*
X132815295Y-111216216D02*
X132815295Y-110974311D01*
X132815295Y-110974311D02*
X132785057Y-110913835D01*
X132785057Y-110913835D02*
X132754819Y-110883597D01*
X132754819Y-110883597D02*
X132694343Y-110853359D01*
X132694343Y-110853359D02*
X132573390Y-110853359D01*
X132573390Y-110853359D02*
X132512914Y-110883597D01*
X132512914Y-110883597D02*
X132482676Y-110913835D01*
X132482676Y-110913835D02*
X132452438Y-110974311D01*
X132452438Y-110974311D02*
X132452438Y-111125501D01*
X132452438Y-111125501D02*
X132482676Y-111185978D01*
X132482676Y-111185978D02*
X132512914Y-111216216D01*
X132512914Y-111216216D02*
X132573390Y-111246454D01*
X132573390Y-111246454D02*
X132694343Y-111246454D01*
X132694343Y-111246454D02*
X132754819Y-111216216D01*
X132754819Y-111216216D02*
X132785057Y-111185978D01*
X132785057Y-111185978D02*
X132815295Y-111125501D01*
X158792333Y-80551159D02*
X158792333Y-81004730D01*
X158792333Y-81004730D02*
X158762094Y-81095444D01*
X158762094Y-81095444D02*
X158701618Y-81155921D01*
X158701618Y-81155921D02*
X158610904Y-81186159D01*
X158610904Y-81186159D02*
X158550428Y-81186159D01*
X159034238Y-80551159D02*
X159427333Y-80551159D01*
X159427333Y-80551159D02*
X159215666Y-80793063D01*
X159215666Y-80793063D02*
X159306381Y-80793063D01*
X159306381Y-80793063D02*
X159366857Y-80823301D01*
X159366857Y-80823301D02*
X159397095Y-80853540D01*
X159397095Y-80853540D02*
X159427333Y-80914016D01*
X159427333Y-80914016D02*
X159427333Y-81065206D01*
X159427333Y-81065206D02*
X159397095Y-81125682D01*
X159397095Y-81125682D02*
X159366857Y-81155921D01*
X159366857Y-81155921D02*
X159306381Y-81186159D01*
X159306381Y-81186159D02*
X159124952Y-81186159D01*
X159124952Y-81186159D02*
X159064476Y-81155921D01*
X159064476Y-81155921D02*
X159034238Y-81125682D01*
X143982683Y-100504266D02*
X144012922Y-100534504D01*
X144012922Y-100534504D02*
X144043160Y-100625218D01*
X144043160Y-100625218D02*
X144043160Y-100685694D01*
X144043160Y-100685694D02*
X144012922Y-100776409D01*
X144012922Y-100776409D02*
X143952445Y-100836885D01*
X143952445Y-100836885D02*
X143891969Y-100867123D01*
X143891969Y-100867123D02*
X143771017Y-100897361D01*
X143771017Y-100897361D02*
X143680302Y-100897361D01*
X143680302Y-100897361D02*
X143559350Y-100867123D01*
X143559350Y-100867123D02*
X143498874Y-100836885D01*
X143498874Y-100836885D02*
X143438398Y-100776409D01*
X143438398Y-100776409D02*
X143408160Y-100685694D01*
X143408160Y-100685694D02*
X143408160Y-100625218D01*
X143408160Y-100625218D02*
X143438398Y-100534504D01*
X143438398Y-100534504D02*
X143468636Y-100504266D01*
X143408160Y-100292599D02*
X143408160Y-99899504D01*
X143408160Y-99899504D02*
X143650064Y-100111171D01*
X143650064Y-100111171D02*
X143650064Y-100020456D01*
X143650064Y-100020456D02*
X143680302Y-99959980D01*
X143680302Y-99959980D02*
X143710541Y-99929742D01*
X143710541Y-99929742D02*
X143771017Y-99899504D01*
X143771017Y-99899504D02*
X143922207Y-99899504D01*
X143922207Y-99899504D02*
X143982683Y-99929742D01*
X143982683Y-99929742D02*
X144012922Y-99959980D01*
X144012922Y-99959980D02*
X144043160Y-100020456D01*
X144043160Y-100020456D02*
X144043160Y-100201885D01*
X144043160Y-100201885D02*
X144012922Y-100262361D01*
X144012922Y-100262361D02*
X143982683Y-100292599D01*
X139488333Y-79034159D02*
X139488333Y-79487730D01*
X139488333Y-79487730D02*
X139458094Y-79578444D01*
X139458094Y-79578444D02*
X139397618Y-79638921D01*
X139397618Y-79638921D02*
X139306904Y-79669159D01*
X139306904Y-79669159D02*
X139246428Y-79669159D01*
X140123333Y-79669159D02*
X139760476Y-79669159D01*
X139941904Y-79669159D02*
X139941904Y-79034159D01*
X139941904Y-79034159D02*
X139881428Y-79124873D01*
X139881428Y-79124873D02*
X139820952Y-79185349D01*
X139820952Y-79185349D02*
X139760476Y-79215587D01*
X147030683Y-100504266D02*
X147060922Y-100534504D01*
X147060922Y-100534504D02*
X147091160Y-100625218D01*
X147091160Y-100625218D02*
X147091160Y-100685694D01*
X147091160Y-100685694D02*
X147060922Y-100776409D01*
X147060922Y-100776409D02*
X147000445Y-100836885D01*
X147000445Y-100836885D02*
X146939969Y-100867123D01*
X146939969Y-100867123D02*
X146819017Y-100897361D01*
X146819017Y-100897361D02*
X146728302Y-100897361D01*
X146728302Y-100897361D02*
X146607350Y-100867123D01*
X146607350Y-100867123D02*
X146546874Y-100836885D01*
X146546874Y-100836885D02*
X146486398Y-100776409D01*
X146486398Y-100776409D02*
X146456160Y-100685694D01*
X146456160Y-100685694D02*
X146456160Y-100625218D01*
X146456160Y-100625218D02*
X146486398Y-100534504D01*
X146486398Y-100534504D02*
X146516636Y-100504266D01*
X146456160Y-99959980D02*
X146456160Y-100080933D01*
X146456160Y-100080933D02*
X146486398Y-100141409D01*
X146486398Y-100141409D02*
X146516636Y-100171647D01*
X146516636Y-100171647D02*
X146607350Y-100232123D01*
X146607350Y-100232123D02*
X146728302Y-100262361D01*
X146728302Y-100262361D02*
X146970207Y-100262361D01*
X146970207Y-100262361D02*
X147030683Y-100232123D01*
X147030683Y-100232123D02*
X147060922Y-100201885D01*
X147060922Y-100201885D02*
X147091160Y-100141409D01*
X147091160Y-100141409D02*
X147091160Y-100020456D01*
X147091160Y-100020456D02*
X147060922Y-99959980D01*
X147060922Y-99959980D02*
X147030683Y-99929742D01*
X147030683Y-99929742D02*
X146970207Y-99899504D01*
X146970207Y-99899504D02*
X146819017Y-99899504D01*
X146819017Y-99899504D02*
X146758541Y-99929742D01*
X146758541Y-99929742D02*
X146728302Y-99959980D01*
X146728302Y-99959980D02*
X146698064Y-100020456D01*
X146698064Y-100020456D02*
X146698064Y-100141409D01*
X146698064Y-100141409D02*
X146728302Y-100201885D01*
X146728302Y-100201885D02*
X146758541Y-100232123D01*
X146758541Y-100232123D02*
X146819017Y-100262361D01*
X139271733Y-85824682D02*
X139241495Y-85854921D01*
X139241495Y-85854921D02*
X139150781Y-85885159D01*
X139150781Y-85885159D02*
X139090305Y-85885159D01*
X139090305Y-85885159D02*
X138999590Y-85854921D01*
X138999590Y-85854921D02*
X138939114Y-85794444D01*
X138939114Y-85794444D02*
X138908876Y-85733968D01*
X138908876Y-85733968D02*
X138878638Y-85613016D01*
X138878638Y-85613016D02*
X138878638Y-85522301D01*
X138878638Y-85522301D02*
X138908876Y-85401349D01*
X138908876Y-85401349D02*
X138939114Y-85340873D01*
X138939114Y-85340873D02*
X138999590Y-85280397D01*
X138999590Y-85280397D02*
X139090305Y-85250159D01*
X139090305Y-85250159D02*
X139150781Y-85250159D01*
X139150781Y-85250159D02*
X139241495Y-85280397D01*
X139241495Y-85280397D02*
X139271733Y-85310635D01*
X139876495Y-85885159D02*
X139513638Y-85885159D01*
X139695066Y-85885159D02*
X139695066Y-85250159D01*
X139695066Y-85250159D02*
X139634590Y-85340873D01*
X139634590Y-85340873D02*
X139574114Y-85401349D01*
X139574114Y-85401349D02*
X139513638Y-85431587D01*
X132210533Y-106932082D02*
X132180295Y-106962321D01*
X132180295Y-106962321D02*
X132089581Y-106992559D01*
X132089581Y-106992559D02*
X132029105Y-106992559D01*
X132029105Y-106992559D02*
X131938390Y-106962321D01*
X131938390Y-106962321D02*
X131877914Y-106901844D01*
X131877914Y-106901844D02*
X131847676Y-106841368D01*
X131847676Y-106841368D02*
X131817438Y-106720416D01*
X131817438Y-106720416D02*
X131817438Y-106629701D01*
X131817438Y-106629701D02*
X131847676Y-106508749D01*
X131847676Y-106508749D02*
X131877914Y-106448273D01*
X131877914Y-106448273D02*
X131938390Y-106387797D01*
X131938390Y-106387797D02*
X132029105Y-106357559D01*
X132029105Y-106357559D02*
X132089581Y-106357559D01*
X132089581Y-106357559D02*
X132180295Y-106387797D01*
X132180295Y-106387797D02*
X132210533Y-106418035D01*
X132422200Y-106357559D02*
X132845533Y-106357559D01*
X132845533Y-106357559D02*
X132573390Y-106992559D01*
X145067159Y-87413400D02*
X144764778Y-87625067D01*
X145067159Y-87776257D02*
X144432159Y-87776257D01*
X144432159Y-87776257D02*
X144432159Y-87534352D01*
X144432159Y-87534352D02*
X144462397Y-87473876D01*
X144462397Y-87473876D02*
X144492635Y-87443638D01*
X144492635Y-87443638D02*
X144553111Y-87413400D01*
X144553111Y-87413400D02*
X144643825Y-87413400D01*
X144643825Y-87413400D02*
X144704301Y-87443638D01*
X144704301Y-87443638D02*
X144734540Y-87473876D01*
X144734540Y-87473876D02*
X144764778Y-87534352D01*
X144764778Y-87534352D02*
X144764778Y-87776257D01*
X145067159Y-86808638D02*
X145067159Y-87171495D01*
X145067159Y-86990067D02*
X144432159Y-86990067D01*
X144432159Y-86990067D02*
X144522873Y-87050543D01*
X144522873Y-87050543D02*
X144583349Y-87111019D01*
X144583349Y-87111019D02*
X144613587Y-87171495D01*
X146591159Y-87413400D02*
X146288778Y-87625067D01*
X146591159Y-87776257D02*
X145956159Y-87776257D01*
X145956159Y-87776257D02*
X145956159Y-87534352D01*
X145956159Y-87534352D02*
X145986397Y-87473876D01*
X145986397Y-87473876D02*
X146016635Y-87443638D01*
X146016635Y-87443638D02*
X146077111Y-87413400D01*
X146077111Y-87413400D02*
X146167825Y-87413400D01*
X146167825Y-87413400D02*
X146228301Y-87443638D01*
X146228301Y-87443638D02*
X146258540Y-87473876D01*
X146258540Y-87473876D02*
X146288778Y-87534352D01*
X146288778Y-87534352D02*
X146288778Y-87776257D01*
X146016635Y-87171495D02*
X145986397Y-87141257D01*
X145986397Y-87141257D02*
X145956159Y-87080781D01*
X145956159Y-87080781D02*
X145956159Y-86929590D01*
X145956159Y-86929590D02*
X145986397Y-86869114D01*
X145986397Y-86869114D02*
X146016635Y-86838876D01*
X146016635Y-86838876D02*
X146077111Y-86808638D01*
X146077111Y-86808638D02*
X146137587Y-86808638D01*
X146137587Y-86808638D02*
X146228301Y-86838876D01*
X146228301Y-86838876D02*
X146591159Y-87201733D01*
X146591159Y-87201733D02*
X146591159Y-86808638D01*
X156426599Y-92489159D02*
X156214932Y-92186778D01*
X156063742Y-92489159D02*
X156063742Y-91854159D01*
X156063742Y-91854159D02*
X156305647Y-91854159D01*
X156305647Y-91854159D02*
X156366123Y-91884397D01*
X156366123Y-91884397D02*
X156396361Y-91914635D01*
X156396361Y-91914635D02*
X156426599Y-91975111D01*
X156426599Y-91975111D02*
X156426599Y-92065825D01*
X156426599Y-92065825D02*
X156396361Y-92126301D01*
X156396361Y-92126301D02*
X156366123Y-92156540D01*
X156366123Y-92156540D02*
X156305647Y-92186778D01*
X156305647Y-92186778D02*
X156063742Y-92186778D01*
X156970885Y-92065825D02*
X156970885Y-92489159D01*
X156819694Y-91823921D02*
X156668504Y-92277492D01*
X156668504Y-92277492D02*
X157061599Y-92277492D01*
X153372959Y-80626401D02*
X153070578Y-80838068D01*
X153372959Y-80989258D02*
X152737959Y-80989258D01*
X152737959Y-80989258D02*
X152737959Y-80747353D01*
X152737959Y-80747353D02*
X152768197Y-80686877D01*
X152768197Y-80686877D02*
X152798435Y-80656639D01*
X152798435Y-80656639D02*
X152858911Y-80626401D01*
X152858911Y-80626401D02*
X152949625Y-80626401D01*
X152949625Y-80626401D02*
X153010101Y-80656639D01*
X153010101Y-80656639D02*
X153040340Y-80686877D01*
X153040340Y-80686877D02*
X153070578Y-80747353D01*
X153070578Y-80747353D02*
X153070578Y-80989258D01*
X152737959Y-80082115D02*
X152737959Y-80203068D01*
X152737959Y-80203068D02*
X152768197Y-80263544D01*
X152768197Y-80263544D02*
X152798435Y-80293782D01*
X152798435Y-80293782D02*
X152889149Y-80354258D01*
X152889149Y-80354258D02*
X153010101Y-80384496D01*
X153010101Y-80384496D02*
X153252006Y-80384496D01*
X153252006Y-80384496D02*
X153312482Y-80354258D01*
X153312482Y-80354258D02*
X153342721Y-80324020D01*
X153342721Y-80324020D02*
X153372959Y-80263544D01*
X153372959Y-80263544D02*
X153372959Y-80142591D01*
X153372959Y-80142591D02*
X153342721Y-80082115D01*
X153342721Y-80082115D02*
X153312482Y-80051877D01*
X153312482Y-80051877D02*
X153252006Y-80021639D01*
X153252006Y-80021639D02*
X153100816Y-80021639D01*
X153100816Y-80021639D02*
X153040340Y-80051877D01*
X153040340Y-80051877D02*
X153010101Y-80082115D01*
X153010101Y-80082115D02*
X152979863Y-80142591D01*
X152979863Y-80142591D02*
X152979863Y-80263544D01*
X152979863Y-80263544D02*
X153010101Y-80324020D01*
X153010101Y-80324020D02*
X153040340Y-80354258D01*
X153040340Y-80354258D02*
X153100816Y-80384496D01*
X156426599Y-94013159D02*
X156214932Y-93710778D01*
X156063742Y-94013159D02*
X156063742Y-93378159D01*
X156063742Y-93378159D02*
X156305647Y-93378159D01*
X156305647Y-93378159D02*
X156366123Y-93408397D01*
X156366123Y-93408397D02*
X156396361Y-93438635D01*
X156396361Y-93438635D02*
X156426599Y-93499111D01*
X156426599Y-93499111D02*
X156426599Y-93589825D01*
X156426599Y-93589825D02*
X156396361Y-93650301D01*
X156396361Y-93650301D02*
X156366123Y-93680540D01*
X156366123Y-93680540D02*
X156305647Y-93710778D01*
X156305647Y-93710778D02*
X156063742Y-93710778D01*
X156789456Y-93650301D02*
X156728980Y-93620063D01*
X156728980Y-93620063D02*
X156698742Y-93589825D01*
X156698742Y-93589825D02*
X156668504Y-93529349D01*
X156668504Y-93529349D02*
X156668504Y-93499111D01*
X156668504Y-93499111D02*
X156698742Y-93438635D01*
X156698742Y-93438635D02*
X156728980Y-93408397D01*
X156728980Y-93408397D02*
X156789456Y-93378159D01*
X156789456Y-93378159D02*
X156910409Y-93378159D01*
X156910409Y-93378159D02*
X156970885Y-93408397D01*
X156970885Y-93408397D02*
X157001123Y-93438635D01*
X157001123Y-93438635D02*
X157031361Y-93499111D01*
X157031361Y-93499111D02*
X157031361Y-93529349D01*
X157031361Y-93529349D02*
X157001123Y-93589825D01*
X157001123Y-93589825D02*
X156970885Y-93620063D01*
X156970885Y-93620063D02*
X156910409Y-93650301D01*
X156910409Y-93650301D02*
X156789456Y-93650301D01*
X156789456Y-93650301D02*
X156728980Y-93680540D01*
X156728980Y-93680540D02*
X156698742Y-93710778D01*
X156698742Y-93710778D02*
X156668504Y-93771254D01*
X156668504Y-93771254D02*
X156668504Y-93892206D01*
X156668504Y-93892206D02*
X156698742Y-93952682D01*
X156698742Y-93952682D02*
X156728980Y-93982921D01*
X156728980Y-93982921D02*
X156789456Y-94013159D01*
X156789456Y-94013159D02*
X156910409Y-94013159D01*
X156910409Y-94013159D02*
X156970885Y-93982921D01*
X156970885Y-93982921D02*
X157001123Y-93952682D01*
X157001123Y-93952682D02*
X157031361Y-93892206D01*
X157031361Y-93892206D02*
X157031361Y-93771254D01*
X157031361Y-93771254D02*
X157001123Y-93710778D01*
X157001123Y-93710778D02*
X156970885Y-93680540D01*
X156970885Y-93680540D02*
X156910409Y-93650301D01*
X151296309Y-96172159D02*
X151296309Y-95537159D01*
X151296309Y-95537159D02*
X151447499Y-95537159D01*
X151447499Y-95537159D02*
X151538214Y-95567397D01*
X151538214Y-95567397D02*
X151598690Y-95627873D01*
X151598690Y-95627873D02*
X151628928Y-95688349D01*
X151628928Y-95688349D02*
X151659166Y-95809301D01*
X151659166Y-95809301D02*
X151659166Y-95900016D01*
X151659166Y-95900016D02*
X151628928Y-96020968D01*
X151628928Y-96020968D02*
X151598690Y-96081444D01*
X151598690Y-96081444D02*
X151538214Y-96141921D01*
X151538214Y-96141921D02*
X151447499Y-96172159D01*
X151447499Y-96172159D02*
X151296309Y-96172159D01*
X151901071Y-95597635D02*
X151931309Y-95567397D01*
X151931309Y-95567397D02*
X151991785Y-95537159D01*
X151991785Y-95537159D02*
X152142976Y-95537159D01*
X152142976Y-95537159D02*
X152203452Y-95567397D01*
X152203452Y-95567397D02*
X152233690Y-95597635D01*
X152233690Y-95597635D02*
X152263928Y-95658111D01*
X152263928Y-95658111D02*
X152263928Y-95718587D01*
X152263928Y-95718587D02*
X152233690Y-95809301D01*
X152233690Y-95809301D02*
X151870833Y-96172159D01*
X151870833Y-96172159D02*
X152263928Y-96172159D01*
X132210533Y-108430682D02*
X132180295Y-108460921D01*
X132180295Y-108460921D02*
X132089581Y-108491159D01*
X132089581Y-108491159D02*
X132029105Y-108491159D01*
X132029105Y-108491159D02*
X131938390Y-108460921D01*
X131938390Y-108460921D02*
X131877914Y-108400444D01*
X131877914Y-108400444D02*
X131847676Y-108339968D01*
X131847676Y-108339968D02*
X131817438Y-108219016D01*
X131817438Y-108219016D02*
X131817438Y-108128301D01*
X131817438Y-108128301D02*
X131847676Y-108007349D01*
X131847676Y-108007349D02*
X131877914Y-107946873D01*
X131877914Y-107946873D02*
X131938390Y-107886397D01*
X131938390Y-107886397D02*
X132029105Y-107856159D01*
X132029105Y-107856159D02*
X132089581Y-107856159D01*
X132089581Y-107856159D02*
X132180295Y-107886397D01*
X132180295Y-107886397D02*
X132210533Y-107916635D01*
X132573390Y-108128301D02*
X132512914Y-108098063D01*
X132512914Y-108098063D02*
X132482676Y-108067825D01*
X132482676Y-108067825D02*
X132452438Y-108007349D01*
X132452438Y-108007349D02*
X132452438Y-107977111D01*
X132452438Y-107977111D02*
X132482676Y-107916635D01*
X132482676Y-107916635D02*
X132512914Y-107886397D01*
X132512914Y-107886397D02*
X132573390Y-107856159D01*
X132573390Y-107856159D02*
X132694343Y-107856159D01*
X132694343Y-107856159D02*
X132754819Y-107886397D01*
X132754819Y-107886397D02*
X132785057Y-107916635D01*
X132785057Y-107916635D02*
X132815295Y-107977111D01*
X132815295Y-107977111D02*
X132815295Y-108007349D01*
X132815295Y-108007349D02*
X132785057Y-108067825D01*
X132785057Y-108067825D02*
X132754819Y-108098063D01*
X132754819Y-108098063D02*
X132694343Y-108128301D01*
X132694343Y-108128301D02*
X132573390Y-108128301D01*
X132573390Y-108128301D02*
X132512914Y-108158540D01*
X132512914Y-108158540D02*
X132482676Y-108188778D01*
X132482676Y-108188778D02*
X132452438Y-108249254D01*
X132452438Y-108249254D02*
X132452438Y-108370206D01*
X132452438Y-108370206D02*
X132482676Y-108430682D01*
X132482676Y-108430682D02*
X132512914Y-108460921D01*
X132512914Y-108460921D02*
X132573390Y-108491159D01*
X132573390Y-108491159D02*
X132694343Y-108491159D01*
X132694343Y-108491159D02*
X132754819Y-108460921D01*
X132754819Y-108460921D02*
X132785057Y-108430682D01*
X132785057Y-108430682D02*
X132815295Y-108370206D01*
X132815295Y-108370206D02*
X132815295Y-108249254D01*
X132815295Y-108249254D02*
X132785057Y-108188778D01*
X132785057Y-108188778D02*
X132754819Y-108158540D01*
X132754819Y-108158540D02*
X132694343Y-108128301D01*
X136950495Y-115450759D02*
X136950495Y-115904330D01*
X136950495Y-115904330D02*
X136920256Y-115995044D01*
X136920256Y-115995044D02*
X136859780Y-116055521D01*
X136859780Y-116055521D02*
X136769066Y-116085759D01*
X136769066Y-116085759D02*
X136708590Y-116085759D01*
X137222638Y-115511235D02*
X137252876Y-115480997D01*
X137252876Y-115480997D02*
X137313352Y-115450759D01*
X137313352Y-115450759D02*
X137464543Y-115450759D01*
X137464543Y-115450759D02*
X137525019Y-115480997D01*
X137525019Y-115480997D02*
X137555257Y-115511235D01*
X137555257Y-115511235D02*
X137585495Y-115571711D01*
X137585495Y-115571711D02*
X137585495Y-115632187D01*
X137585495Y-115632187D02*
X137555257Y-115722901D01*
X137555257Y-115722901D02*
X137192400Y-116085759D01*
X137192400Y-116085759D02*
X137585495Y-116085759D01*
X143543159Y-87413400D02*
X143240778Y-87625067D01*
X143543159Y-87776257D02*
X142908159Y-87776257D01*
X142908159Y-87776257D02*
X142908159Y-87534352D01*
X142908159Y-87534352D02*
X142938397Y-87473876D01*
X142938397Y-87473876D02*
X142968635Y-87443638D01*
X142968635Y-87443638D02*
X143029111Y-87413400D01*
X143029111Y-87413400D02*
X143119825Y-87413400D01*
X143119825Y-87413400D02*
X143180301Y-87443638D01*
X143180301Y-87443638D02*
X143210540Y-87473876D01*
X143210540Y-87473876D02*
X143240778Y-87534352D01*
X143240778Y-87534352D02*
X143240778Y-87776257D01*
X142908159Y-87201733D02*
X142908159Y-86778400D01*
X142908159Y-86778400D02*
X143543159Y-87050543D01*
X138358639Y-93555959D02*
X138358639Y-94070006D01*
X138358639Y-94070006D02*
X138388877Y-94130482D01*
X138388877Y-94130482D02*
X138419115Y-94160721D01*
X138419115Y-94160721D02*
X138479591Y-94190959D01*
X138479591Y-94190959D02*
X138600544Y-94190959D01*
X138600544Y-94190959D02*
X138661020Y-94160721D01*
X138661020Y-94160721D02*
X138691258Y-94130482D01*
X138691258Y-94130482D02*
X138721496Y-94070006D01*
X138721496Y-94070006D02*
X138721496Y-93555959D01*
X138993639Y-93616435D02*
X139023877Y-93586197D01*
X139023877Y-93586197D02*
X139084353Y-93555959D01*
X139084353Y-93555959D02*
X139235544Y-93555959D01*
X139235544Y-93555959D02*
X139296020Y-93586197D01*
X139296020Y-93586197D02*
X139326258Y-93616435D01*
X139326258Y-93616435D02*
X139356496Y-93676911D01*
X139356496Y-93676911D02*
X139356496Y-93737387D01*
X139356496Y-93737387D02*
X139326258Y-93828101D01*
X139326258Y-93828101D02*
X138963401Y-94190959D01*
X138963401Y-94190959D02*
X139356496Y-94190959D01*
D13*
X144444820Y-91414599D02*
X144682915Y-91414599D01*
X144587677Y-91652694D02*
X144682915Y-91414599D01*
X144682915Y-91414599D02*
X144587677Y-91176504D01*
X144873391Y-91557456D02*
X144682915Y-91414599D01*
X144682915Y-91414599D02*
X144873391Y-91271742D01*
X145535181Y-91414600D02*
X145297086Y-91414600D01*
X145392324Y-91176505D02*
X145297086Y-91414600D01*
X145297086Y-91414600D02*
X145392324Y-91652695D01*
X145106610Y-91271743D02*
X145297086Y-91414600D01*
X145297086Y-91414600D02*
X145106610Y-91557457D01*
D12*
X142458683Y-100504266D02*
X142488922Y-100534504D01*
X142488922Y-100534504D02*
X142519160Y-100625218D01*
X142519160Y-100625218D02*
X142519160Y-100685694D01*
X142519160Y-100685694D02*
X142488922Y-100776409D01*
X142488922Y-100776409D02*
X142428445Y-100836885D01*
X142428445Y-100836885D02*
X142367969Y-100867123D01*
X142367969Y-100867123D02*
X142247017Y-100897361D01*
X142247017Y-100897361D02*
X142156302Y-100897361D01*
X142156302Y-100897361D02*
X142035350Y-100867123D01*
X142035350Y-100867123D02*
X141974874Y-100836885D01*
X141974874Y-100836885D02*
X141914398Y-100776409D01*
X141914398Y-100776409D02*
X141884160Y-100685694D01*
X141884160Y-100685694D02*
X141884160Y-100625218D01*
X141884160Y-100625218D02*
X141914398Y-100534504D01*
X141914398Y-100534504D02*
X141944636Y-100504266D01*
X142095826Y-99959980D02*
X142519160Y-99959980D01*
X141853922Y-100111171D02*
X142307493Y-100262361D01*
X142307493Y-100262361D02*
X142307493Y-99869266D01*
X156426599Y-90965159D02*
X156214932Y-90662778D01*
X156063742Y-90965159D02*
X156063742Y-90330159D01*
X156063742Y-90330159D02*
X156305647Y-90330159D01*
X156305647Y-90330159D02*
X156366123Y-90360397D01*
X156366123Y-90360397D02*
X156396361Y-90390635D01*
X156396361Y-90390635D02*
X156426599Y-90451111D01*
X156426599Y-90451111D02*
X156426599Y-90541825D01*
X156426599Y-90541825D02*
X156396361Y-90602301D01*
X156396361Y-90602301D02*
X156366123Y-90632540D01*
X156366123Y-90632540D02*
X156305647Y-90662778D01*
X156305647Y-90662778D02*
X156063742Y-90662778D01*
X156638266Y-90330159D02*
X157031361Y-90330159D01*
X157031361Y-90330159D02*
X156819694Y-90572063D01*
X156819694Y-90572063D02*
X156910409Y-90572063D01*
X156910409Y-90572063D02*
X156970885Y-90602301D01*
X156970885Y-90602301D02*
X157001123Y-90632540D01*
X157001123Y-90632540D02*
X157031361Y-90693016D01*
X157031361Y-90693016D02*
X157031361Y-90844206D01*
X157031361Y-90844206D02*
X157001123Y-90904682D01*
X157001123Y-90904682D02*
X156970885Y-90934921D01*
X156970885Y-90934921D02*
X156910409Y-90965159D01*
X156910409Y-90965159D02*
X156728980Y-90965159D01*
X156728980Y-90965159D02*
X156668504Y-90934921D01*
X156668504Y-90934921D02*
X156638266Y-90904682D01*
X131504171Y-104147759D02*
X131292504Y-103845378D01*
X131141314Y-104147759D02*
X131141314Y-103512759D01*
X131141314Y-103512759D02*
X131383219Y-103512759D01*
X131383219Y-103512759D02*
X131443695Y-103542997D01*
X131443695Y-103542997D02*
X131473933Y-103573235D01*
X131473933Y-103573235D02*
X131504171Y-103633711D01*
X131504171Y-103633711D02*
X131504171Y-103724425D01*
X131504171Y-103724425D02*
X131473933Y-103784901D01*
X131473933Y-103784901D02*
X131443695Y-103815140D01*
X131443695Y-103815140D02*
X131383219Y-103845378D01*
X131383219Y-103845378D02*
X131141314Y-103845378D01*
X132108933Y-104147759D02*
X131746076Y-104147759D01*
X131927504Y-104147759D02*
X131927504Y-103512759D01*
X131927504Y-103512759D02*
X131867028Y-103603473D01*
X131867028Y-103603473D02*
X131806552Y-103663949D01*
X131806552Y-103663949D02*
X131746076Y-103694187D01*
X132502028Y-103512759D02*
X132562505Y-103512759D01*
X132562505Y-103512759D02*
X132622981Y-103542997D01*
X132622981Y-103542997D02*
X132653219Y-103573235D01*
X132653219Y-103573235D02*
X132683457Y-103633711D01*
X132683457Y-103633711D02*
X132713695Y-103754663D01*
X132713695Y-103754663D02*
X132713695Y-103905854D01*
X132713695Y-103905854D02*
X132683457Y-104026806D01*
X132683457Y-104026806D02*
X132653219Y-104087282D01*
X132653219Y-104087282D02*
X132622981Y-104117521D01*
X132622981Y-104117521D02*
X132562505Y-104147759D01*
X132562505Y-104147759D02*
X132502028Y-104147759D01*
X132502028Y-104147759D02*
X132441552Y-104117521D01*
X132441552Y-104117521D02*
X132411314Y-104087282D01*
X132411314Y-104087282D02*
X132381076Y-104026806D01*
X132381076Y-104026806D02*
X132350838Y-103905854D01*
X132350838Y-103905854D02*
X132350838Y-103754663D01*
X132350838Y-103754663D02*
X132381076Y-103633711D01*
X132381076Y-103633711D02*
X132411314Y-103573235D01*
X132411314Y-103573235D02*
X132441552Y-103542997D01*
X132441552Y-103542997D02*
X132502028Y-103512759D01*
X147292682Y-92163200D02*
X147322921Y-92193438D01*
X147322921Y-92193438D02*
X147353159Y-92284152D01*
X147353159Y-92284152D02*
X147353159Y-92344628D01*
X147353159Y-92344628D02*
X147322921Y-92435343D01*
X147322921Y-92435343D02*
X147262444Y-92495819D01*
X147262444Y-92495819D02*
X147201968Y-92526057D01*
X147201968Y-92526057D02*
X147081016Y-92556295D01*
X147081016Y-92556295D02*
X146990301Y-92556295D01*
X146990301Y-92556295D02*
X146869349Y-92526057D01*
X146869349Y-92526057D02*
X146808873Y-92495819D01*
X146808873Y-92495819D02*
X146748397Y-92435343D01*
X146748397Y-92435343D02*
X146718159Y-92344628D01*
X146718159Y-92344628D02*
X146718159Y-92284152D01*
X146718159Y-92284152D02*
X146748397Y-92193438D01*
X146748397Y-92193438D02*
X146778635Y-92163200D01*
X146718159Y-91588676D02*
X146718159Y-91891057D01*
X146718159Y-91891057D02*
X147020540Y-91921295D01*
X147020540Y-91921295D02*
X146990301Y-91891057D01*
X146990301Y-91891057D02*
X146960063Y-91830581D01*
X146960063Y-91830581D02*
X146960063Y-91679390D01*
X146960063Y-91679390D02*
X146990301Y-91618914D01*
X146990301Y-91618914D02*
X147020540Y-91588676D01*
X147020540Y-91588676D02*
X147081016Y-91558438D01*
X147081016Y-91558438D02*
X147232206Y-91558438D01*
X147232206Y-91558438D02*
X147292682Y-91588676D01*
X147292682Y-91588676D02*
X147322921Y-91618914D01*
X147322921Y-91618914D02*
X147353159Y-91679390D01*
X147353159Y-91679390D02*
X147353159Y-91830581D01*
X147353159Y-91830581D02*
X147322921Y-91891057D01*
X147322921Y-91891057D02*
X147292682Y-91921295D01*
X139271733Y-84300682D02*
X139241495Y-84330921D01*
X139241495Y-84330921D02*
X139150781Y-84361159D01*
X139150781Y-84361159D02*
X139090305Y-84361159D01*
X139090305Y-84361159D02*
X138999590Y-84330921D01*
X138999590Y-84330921D02*
X138939114Y-84270444D01*
X138939114Y-84270444D02*
X138908876Y-84209968D01*
X138908876Y-84209968D02*
X138878638Y-84089016D01*
X138878638Y-84089016D02*
X138878638Y-83998301D01*
X138878638Y-83998301D02*
X138908876Y-83877349D01*
X138908876Y-83877349D02*
X138939114Y-83816873D01*
X138939114Y-83816873D02*
X138999590Y-83756397D01*
X138999590Y-83756397D02*
X139090305Y-83726159D01*
X139090305Y-83726159D02*
X139150781Y-83726159D01*
X139150781Y-83726159D02*
X139241495Y-83756397D01*
X139241495Y-83756397D02*
X139271733Y-83786635D01*
X139513638Y-83786635D02*
X139543876Y-83756397D01*
X139543876Y-83756397D02*
X139604352Y-83726159D01*
X139604352Y-83726159D02*
X139755543Y-83726159D01*
X139755543Y-83726159D02*
X139816019Y-83756397D01*
X139816019Y-83756397D02*
X139846257Y-83786635D01*
X139846257Y-83786635D02*
X139876495Y-83847111D01*
X139876495Y-83847111D02*
X139876495Y-83907587D01*
X139876495Y-83907587D02*
X139846257Y-83998301D01*
X139846257Y-83998301D02*
X139483400Y-84361159D01*
X139483400Y-84361159D02*
X139876495Y-84361159D01*
X145567160Y-101109028D02*
X145264779Y-101320695D01*
X145567160Y-101471885D02*
X144932160Y-101471885D01*
X144932160Y-101471885D02*
X144932160Y-101229980D01*
X144932160Y-101229980D02*
X144962398Y-101169504D01*
X144962398Y-101169504D02*
X144992636Y-101139266D01*
X144992636Y-101139266D02*
X145053112Y-101109028D01*
X145053112Y-101109028D02*
X145143826Y-101109028D01*
X145143826Y-101109028D02*
X145204302Y-101139266D01*
X145204302Y-101139266D02*
X145234541Y-101169504D01*
X145234541Y-101169504D02*
X145264779Y-101229980D01*
X145264779Y-101229980D02*
X145264779Y-101471885D01*
X145567160Y-100504266D02*
X145567160Y-100867123D01*
X145567160Y-100685695D02*
X144932160Y-100685695D01*
X144932160Y-100685695D02*
X145022874Y-100746171D01*
X145022874Y-100746171D02*
X145083350Y-100806647D01*
X145083350Y-100806647D02*
X145113588Y-100867123D01*
X144992636Y-100262361D02*
X144962398Y-100232123D01*
X144962398Y-100232123D02*
X144932160Y-100171647D01*
X144932160Y-100171647D02*
X144932160Y-100020456D01*
X144932160Y-100020456D02*
X144962398Y-99959980D01*
X144962398Y-99959980D02*
X144992636Y-99929742D01*
X144992636Y-99929742D02*
X145053112Y-99899504D01*
X145053112Y-99899504D02*
X145113588Y-99899504D01*
X145113588Y-99899504D02*
X145204302Y-99929742D01*
X145204302Y-99929742D02*
X145567160Y-100292599D01*
X145567160Y-100292599D02*
X145567160Y-99899504D01*
X156426599Y-95537159D02*
X156214932Y-95234778D01*
X156063742Y-95537159D02*
X156063742Y-94902159D01*
X156063742Y-94902159D02*
X156305647Y-94902159D01*
X156305647Y-94902159D02*
X156366123Y-94932397D01*
X156366123Y-94932397D02*
X156396361Y-94962635D01*
X156396361Y-94962635D02*
X156426599Y-95023111D01*
X156426599Y-95023111D02*
X156426599Y-95113825D01*
X156426599Y-95113825D02*
X156396361Y-95174301D01*
X156396361Y-95174301D02*
X156366123Y-95204540D01*
X156366123Y-95204540D02*
X156305647Y-95234778D01*
X156305647Y-95234778D02*
X156063742Y-95234778D01*
X156728980Y-95537159D02*
X156849932Y-95537159D01*
X156849932Y-95537159D02*
X156910409Y-95506921D01*
X156910409Y-95506921D02*
X156940647Y-95476682D01*
X156940647Y-95476682D02*
X157001123Y-95385968D01*
X157001123Y-95385968D02*
X157031361Y-95265016D01*
X157031361Y-95265016D02*
X157031361Y-95023111D01*
X157031361Y-95023111D02*
X157001123Y-94962635D01*
X157001123Y-94962635D02*
X156970885Y-94932397D01*
X156970885Y-94932397D02*
X156910409Y-94902159D01*
X156910409Y-94902159D02*
X156789456Y-94902159D01*
X156789456Y-94902159D02*
X156728980Y-94932397D01*
X156728980Y-94932397D02*
X156698742Y-94962635D01*
X156698742Y-94962635D02*
X156668504Y-95023111D01*
X156668504Y-95023111D02*
X156668504Y-95174301D01*
X156668504Y-95174301D02*
X156698742Y-95234778D01*
X156698742Y-95234778D02*
X156728980Y-95265016D01*
X156728980Y-95265016D02*
X156789456Y-95295254D01*
X156789456Y-95295254D02*
X156910409Y-95295254D01*
X156910409Y-95295254D02*
X156970885Y-95265016D01*
X156970885Y-95265016D02*
X157001123Y-95234778D01*
X157001123Y-95234778D02*
X157031361Y-95174301D01*
X135268167Y-99347159D02*
X134965786Y-99347159D01*
X134965786Y-99347159D02*
X134965786Y-98712159D01*
X135812453Y-99347159D02*
X135449596Y-99347159D01*
X135631024Y-99347159D02*
X135631024Y-98712159D01*
X135631024Y-98712159D02*
X135570548Y-98802873D01*
X135570548Y-98802873D02*
X135510072Y-98863349D01*
X135510072Y-98863349D02*
X135449596Y-98893587D01*
X148615160Y-101109028D02*
X148312779Y-101320695D01*
X148615160Y-101471885D02*
X147980160Y-101471885D01*
X147980160Y-101471885D02*
X147980160Y-101229980D01*
X147980160Y-101229980D02*
X148010398Y-101169504D01*
X148010398Y-101169504D02*
X148040636Y-101139266D01*
X148040636Y-101139266D02*
X148101112Y-101109028D01*
X148101112Y-101109028D02*
X148191826Y-101109028D01*
X148191826Y-101109028D02*
X148252302Y-101139266D01*
X148252302Y-101139266D02*
X148282541Y-101169504D01*
X148282541Y-101169504D02*
X148312779Y-101229980D01*
X148312779Y-101229980D02*
X148312779Y-101471885D01*
X148615160Y-100504266D02*
X148615160Y-100867123D01*
X148615160Y-100685695D02*
X147980160Y-100685695D01*
X147980160Y-100685695D02*
X148070874Y-100746171D01*
X148070874Y-100746171D02*
X148131350Y-100806647D01*
X148131350Y-100806647D02*
X148161588Y-100867123D01*
X148615160Y-99899504D02*
X148615160Y-100262361D01*
X148615160Y-100080933D02*
X147980160Y-100080933D01*
X147980160Y-100080933D02*
X148070874Y-100141409D01*
X148070874Y-100141409D02*
X148131350Y-100201885D01*
X148131350Y-100201885D02*
X148161588Y-100262361D01*
X150985359Y-80626401D02*
X150682978Y-80838068D01*
X150985359Y-80989258D02*
X150350359Y-80989258D01*
X150350359Y-80989258D02*
X150350359Y-80747353D01*
X150350359Y-80747353D02*
X150380597Y-80686877D01*
X150380597Y-80686877D02*
X150410835Y-80656639D01*
X150410835Y-80656639D02*
X150471311Y-80626401D01*
X150471311Y-80626401D02*
X150562025Y-80626401D01*
X150562025Y-80626401D02*
X150622501Y-80656639D01*
X150622501Y-80656639D02*
X150652740Y-80686877D01*
X150652740Y-80686877D02*
X150682978Y-80747353D01*
X150682978Y-80747353D02*
X150682978Y-80989258D01*
X150350359Y-80051877D02*
X150350359Y-80354258D01*
X150350359Y-80354258D02*
X150652740Y-80384496D01*
X150652740Y-80384496D02*
X150622501Y-80354258D01*
X150622501Y-80354258D02*
X150592263Y-80293782D01*
X150592263Y-80293782D02*
X150592263Y-80142591D01*
X150592263Y-80142591D02*
X150622501Y-80082115D01*
X150622501Y-80082115D02*
X150652740Y-80051877D01*
X150652740Y-80051877D02*
X150713216Y-80021639D01*
X150713216Y-80021639D02*
X150864406Y-80021639D01*
X150864406Y-80021639D02*
X150924882Y-80051877D01*
X150924882Y-80051877D02*
X150955121Y-80082115D01*
X150955121Y-80082115D02*
X150985359Y-80142591D01*
X150985359Y-80142591D02*
X150985359Y-80293782D01*
X150985359Y-80293782D02*
X150955121Y-80354258D01*
X150955121Y-80354258D02*
X150924882Y-80384496D01*
X148149638Y-86266159D02*
X148149638Y-86780206D01*
X148149638Y-86780206D02*
X148179876Y-86840682D01*
X148179876Y-86840682D02*
X148210114Y-86870921D01*
X148210114Y-86870921D02*
X148270590Y-86901159D01*
X148270590Y-86901159D02*
X148391543Y-86901159D01*
X148391543Y-86901159D02*
X148452019Y-86870921D01*
X148452019Y-86870921D02*
X148482257Y-86840682D01*
X148482257Y-86840682D02*
X148512495Y-86780206D01*
X148512495Y-86780206D02*
X148512495Y-86266159D01*
X148754400Y-86266159D02*
X149147495Y-86266159D01*
X149147495Y-86266159D02*
X148935828Y-86508063D01*
X148935828Y-86508063D02*
X149026543Y-86508063D01*
X149026543Y-86508063D02*
X149087019Y-86538301D01*
X149087019Y-86538301D02*
X149117257Y-86568540D01*
X149117257Y-86568540D02*
X149147495Y-86629016D01*
X149147495Y-86629016D02*
X149147495Y-86780206D01*
X149147495Y-86780206D02*
X149117257Y-86840682D01*
X149117257Y-86840682D02*
X149087019Y-86870921D01*
X149087019Y-86870921D02*
X149026543Y-86901159D01*
X149026543Y-86901159D02*
X148845114Y-86901159D01*
X148845114Y-86901159D02*
X148784638Y-86870921D01*
X148784638Y-86870921D02*
X148754400Y-86840682D01*
D13*
X153670000Y-88304019D02*
X153670000Y-88542114D01*
X153431905Y-88446876D02*
X153670000Y-88542114D01*
X153670000Y-88542114D02*
X153908095Y-88446876D01*
X153527143Y-88732590D02*
X153670000Y-88542114D01*
X153670000Y-88542114D02*
X153812857Y-88732590D01*
D12*
X140361342Y-112793435D02*
X140300866Y-112763197D01*
X140300866Y-112763197D02*
X140240390Y-112702721D01*
X140240390Y-112702721D02*
X140149676Y-112612006D01*
X140149676Y-112612006D02*
X140089199Y-112581768D01*
X140089199Y-112581768D02*
X140028723Y-112581768D01*
X140058961Y-112732959D02*
X139998485Y-112702721D01*
X139998485Y-112702721D02*
X139938009Y-112642244D01*
X139938009Y-112642244D02*
X139907771Y-112521292D01*
X139907771Y-112521292D02*
X139907771Y-112309625D01*
X139907771Y-112309625D02*
X139938009Y-112188673D01*
X139938009Y-112188673D02*
X139998485Y-112128197D01*
X139998485Y-112128197D02*
X140058961Y-112097959D01*
X140058961Y-112097959D02*
X140179914Y-112097959D01*
X140179914Y-112097959D02*
X140240390Y-112128197D01*
X140240390Y-112128197D02*
X140300866Y-112188673D01*
X140300866Y-112188673D02*
X140331104Y-112309625D01*
X140331104Y-112309625D02*
X140331104Y-112521292D01*
X140331104Y-112521292D02*
X140300866Y-112642244D01*
X140300866Y-112642244D02*
X140240390Y-112702721D01*
X140240390Y-112702721D02*
X140179914Y-112732959D01*
X140179914Y-112732959D02*
X140058961Y-112732959D01*
X140935866Y-112732959D02*
X140573009Y-112732959D01*
X140754437Y-112732959D02*
X140754437Y-112097959D01*
X140754437Y-112097959D02*
X140693961Y-112188673D01*
X140693961Y-112188673D02*
X140633485Y-112249149D01*
X140633485Y-112249149D02*
X140573009Y-112279387D01*
X141147533Y-112097959D02*
X141540628Y-112097959D01*
X141540628Y-112097959D02*
X141328961Y-112339863D01*
X141328961Y-112339863D02*
X141419676Y-112339863D01*
X141419676Y-112339863D02*
X141480152Y-112370101D01*
X141480152Y-112370101D02*
X141510390Y-112400340D01*
X141510390Y-112400340D02*
X141540628Y-112460816D01*
X141540628Y-112460816D02*
X141540628Y-112612006D01*
X141540628Y-112612006D02*
X141510390Y-112672482D01*
X141510390Y-112672482D02*
X141480152Y-112702721D01*
X141480152Y-112702721D02*
X141419676Y-112732959D01*
X141419676Y-112732959D02*
X141238247Y-112732959D01*
X141238247Y-112732959D02*
X141177771Y-112702721D01*
X141177771Y-112702721D02*
X141147533Y-112672482D01*
X131605771Y-109929282D02*
X131575533Y-109959521D01*
X131575533Y-109959521D02*
X131484819Y-109989759D01*
X131484819Y-109989759D02*
X131424343Y-109989759D01*
X131424343Y-109989759D02*
X131333628Y-109959521D01*
X131333628Y-109959521D02*
X131273152Y-109899044D01*
X131273152Y-109899044D02*
X131242914Y-109838568D01*
X131242914Y-109838568D02*
X131212676Y-109717616D01*
X131212676Y-109717616D02*
X131212676Y-109626901D01*
X131212676Y-109626901D02*
X131242914Y-109505949D01*
X131242914Y-109505949D02*
X131273152Y-109445473D01*
X131273152Y-109445473D02*
X131333628Y-109384997D01*
X131333628Y-109384997D02*
X131424343Y-109354759D01*
X131424343Y-109354759D02*
X131484819Y-109354759D01*
X131484819Y-109354759D02*
X131575533Y-109384997D01*
X131575533Y-109384997D02*
X131605771Y-109415235D01*
X132210533Y-109989759D02*
X131847676Y-109989759D01*
X132029104Y-109989759D02*
X132029104Y-109354759D01*
X132029104Y-109354759D02*
X131968628Y-109445473D01*
X131968628Y-109445473D02*
X131908152Y-109505949D01*
X131908152Y-109505949D02*
X131847676Y-109536187D01*
X132603628Y-109354759D02*
X132664105Y-109354759D01*
X132664105Y-109354759D02*
X132724581Y-109384997D01*
X132724581Y-109384997D02*
X132754819Y-109415235D01*
X132754819Y-109415235D02*
X132785057Y-109475711D01*
X132785057Y-109475711D02*
X132815295Y-109596663D01*
X132815295Y-109596663D02*
X132815295Y-109747854D01*
X132815295Y-109747854D02*
X132785057Y-109868806D01*
X132785057Y-109868806D02*
X132754819Y-109929282D01*
X132754819Y-109929282D02*
X132724581Y-109959521D01*
X132724581Y-109959521D02*
X132664105Y-109989759D01*
X132664105Y-109989759D02*
X132603628Y-109989759D01*
X132603628Y-109989759D02*
X132543152Y-109959521D01*
X132543152Y-109959521D02*
X132512914Y-109929282D01*
X132512914Y-109929282D02*
X132482676Y-109868806D01*
X132482676Y-109868806D02*
X132452438Y-109747854D01*
X132452438Y-109747854D02*
X132452438Y-109596663D01*
X132452438Y-109596663D02*
X132482676Y-109475711D01*
X132482676Y-109475711D02*
X132512914Y-109415235D01*
X132512914Y-109415235D02*
X132543152Y-109384997D01*
X132543152Y-109384997D02*
X132603628Y-109354759D01*
X151296309Y-90330159D02*
X151296309Y-89695159D01*
X151296309Y-89695159D02*
X151447499Y-89695159D01*
X151447499Y-89695159D02*
X151538214Y-89725397D01*
X151538214Y-89725397D02*
X151598690Y-89785873D01*
X151598690Y-89785873D02*
X151628928Y-89846349D01*
X151628928Y-89846349D02*
X151659166Y-89967301D01*
X151659166Y-89967301D02*
X151659166Y-90058016D01*
X151659166Y-90058016D02*
X151628928Y-90178968D01*
X151628928Y-90178968D02*
X151598690Y-90239444D01*
X151598690Y-90239444D02*
X151538214Y-90299921D01*
X151538214Y-90299921D02*
X151447499Y-90330159D01*
X151447499Y-90330159D02*
X151296309Y-90330159D01*
X152263928Y-90330159D02*
X151901071Y-90330159D01*
X152082499Y-90330159D02*
X152082499Y-89695159D01*
X152082499Y-89695159D02*
X152022023Y-89785873D01*
X152022023Y-89785873D02*
X151961547Y-89846349D01*
X151961547Y-89846349D02*
X151901071Y-89876587D01*
D14*
%TO.C,U1*%
X142240000Y-102808600D02*
X141440000Y-102808600D01*
X142240000Y-102808600D02*
X143040000Y-102808600D01*
X142240000Y-105928600D02*
X141440000Y-105928600D01*
X142240000Y-105928600D02*
X143040000Y-105928600D01*
X140940000Y-102858600D02*
X140700000Y-102528600D01*
X141180000Y-102528600D01*
X140940000Y-102858600D01*
G36*
X140940000Y-102858600D02*
G01*
X140700000Y-102528600D01*
X141180000Y-102528600D01*
X140940000Y-102858600D01*
G37*
%TO.C,C9*%
X134811381Y-110691200D02*
X134530219Y-110691200D01*
X134811381Y-111711200D02*
X134530219Y-111711200D01*
%TO.C,J3*%
X157624000Y-81932000D02*
X159004000Y-81932000D01*
X157624000Y-83312000D02*
X157624000Y-81932000D01*
X157624000Y-84582000D02*
X157624000Y-99932000D01*
X157624000Y-84582000D02*
X160384000Y-84582000D01*
X157624000Y-99932000D02*
X160384000Y-99932000D01*
X160384000Y-84582000D02*
X160384000Y-99932000D01*
%TO.C,C3*%
X143246001Y-97903420D02*
X143246001Y-98184580D01*
X144266001Y-97903420D02*
X144266001Y-98184580D01*
%TO.C,J1*%
X131990000Y-77772000D02*
X131990000Y-78072000D01*
X131990000Y-79892000D02*
X131990000Y-81942000D01*
X131990000Y-81942000D02*
X132760000Y-81942000D01*
X132760000Y-81592000D02*
X134740000Y-81592000D01*
X132760000Y-81942000D02*
X132760000Y-81592000D01*
X132790000Y-76472000D02*
X132790000Y-77772000D01*
X132790000Y-77772000D02*
X131990000Y-77772000D01*
X144660000Y-81592000D02*
X146640000Y-81592000D01*
X144660000Y-82182000D02*
X144660000Y-81592000D01*
X146610000Y-76472000D02*
X132790000Y-76472000D01*
X146610000Y-77772000D02*
X146610000Y-76472000D01*
X146640000Y-81592000D02*
X146640000Y-81942000D01*
X146640000Y-81942000D02*
X147410000Y-81942000D01*
X147410000Y-77772000D02*
X146610000Y-77772000D01*
X147410000Y-78072000D02*
X147410000Y-77772000D01*
X147410000Y-81942000D02*
X147410000Y-79892000D01*
%TO.C,C6*%
X146294001Y-97903419D02*
X146294001Y-98184581D01*
X147314001Y-97903419D02*
X147314001Y-98184581D01*
%TO.C,C1*%
X141872580Y-85088000D02*
X141591420Y-85088000D01*
X141872580Y-86108000D02*
X141591420Y-86108000D01*
%TO.C,C7*%
X134811381Y-106195400D02*
X134530219Y-106195400D01*
X134811381Y-107215400D02*
X134530219Y-107215400D01*
%TO.C,R1*%
X144257500Y-89424742D02*
X144257500Y-89899258D01*
X145302500Y-89424742D02*
X145302500Y-89899258D01*
%TO.C,R2*%
X145781500Y-89899258D02*
X145781500Y-89424742D01*
X146826500Y-89899258D02*
X146826500Y-89424742D01*
%TO.C,R4*%
X153940742Y-91679500D02*
X154415258Y-91679500D01*
X153940742Y-92724500D02*
X154415258Y-92724500D01*
%TO.C,R6*%
X152563300Y-82637743D02*
X152563300Y-83112259D01*
X153608300Y-82637743D02*
X153608300Y-83112259D01*
%TO.C,R8*%
X154415258Y-93203500D02*
X153940742Y-93203500D01*
X154415258Y-94248500D02*
X153940742Y-94248500D01*
%TO.C,D2*%
X150114000Y-93182000D02*
X149464000Y-93182000D01*
X150114000Y-93182000D02*
X150764000Y-93182000D01*
X150114000Y-96302000D02*
X149464000Y-96302000D01*
X150114000Y-96302000D02*
X150764000Y-96302000D01*
X148951500Y-93232000D02*
X148711500Y-92902000D01*
X149191500Y-92902000D01*
X148951500Y-93232000D01*
G36*
X148951500Y-93232000D02*
G01*
X148711500Y-92902000D01*
X149191500Y-92902000D01*
X148951500Y-93232000D01*
G37*
%TO.C,C8*%
X134811381Y-107694000D02*
X134530219Y-107694000D01*
X134811381Y-108714000D02*
X134530219Y-108714000D01*
%TO.C,J2*%
X138315000Y-117178600D02*
X138315001Y-115798600D01*
X139695000Y-117178599D02*
X138315000Y-117178600D01*
X140965000Y-114418600D02*
X143615000Y-114418600D01*
X140965000Y-117178600D02*
X140965000Y-114418600D01*
X140965000Y-117178600D02*
X143615000Y-117178600D01*
X143615000Y-117178600D02*
X143615000Y-114418600D01*
%TO.C,R7*%
X142733500Y-89899258D02*
X142733500Y-89424742D01*
X143778500Y-89899258D02*
X143778500Y-89424742D01*
D10*
%TO.C,U2*%
X140310301Y-92227400D02*
X140310301Y-92694059D01*
X140310301Y-95113541D02*
X140310301Y-95580200D01*
X140310301Y-95580200D02*
X140780262Y-95580200D01*
X140780262Y-92227400D02*
X140310301Y-92227400D01*
X145199740Y-95580200D02*
X145669701Y-95580200D01*
X145669701Y-92227400D02*
X145199740Y-92227400D01*
X145669701Y-92694059D02*
X145669701Y-92227400D01*
X145669701Y-95580200D02*
X145669701Y-95113541D01*
D15*
G36*
X139878501Y-93844301D02*
G01*
X139624501Y-93844301D01*
X139624501Y-93463300D01*
X139878501Y-93463300D01*
X139878501Y-93844301D01*
G37*
G36*
X144930500Y-96266000D02*
G01*
X144549500Y-96266000D01*
X144549500Y-96012000D01*
X144930500Y-96012000D01*
X144930500Y-96266000D01*
G37*
D14*
%TO.C,C4*%
X141722001Y-97903419D02*
X141722001Y-98184581D01*
X142742001Y-97903419D02*
X142742001Y-98184581D01*
%TO.C,R3*%
X154415258Y-90155500D02*
X153940742Y-90155500D01*
X154415258Y-91200500D02*
X153940742Y-91200500D01*
%TO.C,R10*%
X134331942Y-103338100D02*
X134806458Y-103338100D01*
X134331942Y-104383100D02*
X134806458Y-104383100D01*
%TO.C,C5*%
X146556000Y-94271219D02*
X146556000Y-94552381D01*
X147576000Y-94271219D02*
X147576000Y-94552381D01*
%TO.C,C2*%
X141872580Y-83564000D02*
X141591420Y-83564000D01*
X141872580Y-84584000D02*
X141591420Y-84584000D01*
%TO.C,R12*%
X144757501Y-97806742D02*
X144757501Y-98281258D01*
X145802501Y-97806742D02*
X145802501Y-98281258D01*
%TO.C,R9*%
X153940742Y-94727500D02*
X154415258Y-94727500D01*
X153940742Y-95772500D02*
X154415258Y-95772500D01*
D10*
%TO.C,L1*%
X131551301Y-95529400D02*
X131551301Y-97152460D01*
X131551301Y-100967540D02*
X131551301Y-102590600D01*
X131551301Y-102590600D02*
X139196701Y-102590600D01*
X139196701Y-95529400D02*
X131551301Y-95529400D01*
X139196701Y-97152460D02*
X139196701Y-95529400D01*
X139196701Y-102590600D02*
X139196701Y-100967540D01*
D14*
%TO.C,R11*%
X147805501Y-97806742D02*
X147805501Y-98281258D01*
X148850501Y-97806742D02*
X148850501Y-98281258D01*
%TO.C,R5*%
X150175700Y-82637743D02*
X150175700Y-83112259D01*
X151220700Y-82637743D02*
X151220700Y-83112259D01*
D10*
%TO.C,U3*%
X150914100Y-88239600D02*
X152869900Y-88239600D01*
X152869900Y-84988400D02*
X150914100Y-84988400D01*
D14*
%TO.C,Q13*%
X143669200Y-106700800D02*
X137779200Y-106700800D01*
X143669200Y-111840800D02*
X137779200Y-111840800D01*
X144629200Y-111435800D02*
X144299200Y-111195800D01*
X144629200Y-110955800D01*
X144629200Y-111435800D01*
G36*
X144629200Y-111435800D02*
G01*
X144299200Y-111195800D01*
X144629200Y-110955800D01*
X144629200Y-111435800D01*
G37*
%TO.C,C10*%
X134811381Y-109192600D02*
X134530219Y-109192600D01*
X134811381Y-110212600D02*
X134530219Y-110212600D01*
%TO.C,D1*%
X150114000Y-89626000D02*
X149464000Y-89626000D01*
X150114000Y-89626000D02*
X150764000Y-89626000D01*
X150114000Y-92746000D02*
X149464000Y-92746000D01*
X150114000Y-92746000D02*
X150764000Y-92746000D01*
X148951500Y-89676000D02*
X148711500Y-89346000D01*
X149191500Y-89346000D01*
X148951500Y-89676000D01*
G36*
X148951500Y-89676000D02*
G01*
X148711500Y-89346000D01*
X149191500Y-89346000D01*
X148951500Y-89676000D01*
G37*
%TD*%
M02*
